<svg xmlns="http://www.w3.org/2000/svg" width="22" height="22" viewBox="0 0 22 22">
  <g id="asset" transform="translate(-2.251 -2.25)">
    <path id="Path_37226" data-name="Path 37226" d="M12.227,24.286a3.143,3.143,0,1,1,3.143-3.143A3.143,3.143,0,0,1,12.227,24.286Zm0-4.714A1.571,1.571,0,1,0,13.8,21.143,1.571,1.571,0,0,0,12.227,19.571Z" transform="translate(-2.061 -4.75)"/>
    <path id="Path_37227" data-name="Path 37227" d="M24.251,5.393A3.146,3.146,0,0,0,21.108,2.25a3.1,3.1,0,0,0-1.457.375L6.773,9.288a7.851,7.851,0,1,0,10.458,10.4L23.9,6.8A3.1,3.1,0,0,0,24.251,5.393ZM21.108,3.821a1.571,1.571,0,1,1-1.571,1.571,1.571,1.571,0,0,1,1.571-1.571ZM17.98,5.242c0,.051-.015.1-.015.151a3.146,3.146,0,0,0,3.143,3.143c.051,0,.1-.013.147-.015l-3.4,6.57A7.871,7.871,0,0,0,11.4,8.652ZM10.108,22.679a6.286,6.286,0,1,1,6.286-6.286A6.286,6.286,0,0,1,10.108,22.679Z" transform="translate(0 0)"/>
  </g>
</svg>
