<svg xmlns="http://www.w3.org/2000/svg" width="23.167" height="23.003" viewBox="0 0 23.167 23.003">
  <g id="Group_43117" data-name="Group 43117" transform="translate(-530.963 -1327.426)">
    <g id="svgexport-15_14_" data-name="svgexport-15 (14)" transform="translate(531.463 1327.748)">
      <path id="Path_37064" data-name="Path 37064" d="M13.962,9.09,22.1,10.706a1.365,1.365,0,0,1,1.1,1.348v9.421a1.384,1.384,0,0,1-1.385,1.385H13.5a.457.457,0,0,0,.462-.462v-.462h7.851a.463.463,0,0,0,.462-.462V12.055a.464.464,0,0,0-.36-.453l-7.952-1.57Z" transform="translate(-1.031 -0.681)" stroke="#000" stroke-width="1"/>
      <path id="Path_37065" data-name="Path 37065" d="M19,13.618a.462.462,0,1,1,0,.924H17.156a.462.462,0,1,1,0-.924Zm0,2.771a.462.462,0,1,1,0,.924H17.156a.462.462,0,1,1,0-.924Zm0,2.771a.462.462,0,1,1,0,.924H17.156a.462.462,0,1,1,0-.924Zm-5.08,3.233a.462.462,0,0,1-.924,0V9.462a.491.491,0,0,1,.166-.36.485.485,0,0,1,.388-.092l.369.074V22.392Z" transform="translate(-0.993 -0.674)" stroke="#000" stroke-width="1"/>
      <path id="Path_37066" data-name="Path 37066" d="M12.236,21.625v.462a.457.457,0,0,0,.462.462H9a.457.457,0,0,0,.462-.462v-.462ZM9.927,5a.462.462,0,0,1,0,.924H8.08A.462.462,0,0,1,8.08,5Zm.462,3.233a.457.457,0,0,1-.462.462H8.08a.462.462,0,0,1,0-.924H9.927A.457.457,0,0,1,10.389,8.233Zm-.462,2.309a.462.462,0,0,1,0,.924H8.08a.462.462,0,0,1,0-.924Zm0,2.771a.462.462,0,0,1,0,.924H8.08a.462.462,0,0,1,0-.924Zm-4.156.462a.457.457,0,0,1-.462.462H3.462a.462.462,0,0,1,0-.924H5.309A.457.457,0,0,1,5.771,13.774ZM5.309,5a.462.462,0,0,1,0,.924H3.462a.462.462,0,1,1,0-.924Zm0,2.771a.462.462,0,0,1,0,.924H3.462a.462.462,0,0,1,0-.924Zm0,2.771a.462.462,0,0,1,0,.924H3.462a.462.462,0,0,1,0-.924Zm3.233,6.927a.463.463,0,0,0-.462-.462H5.309a.457.457,0,0,0-.462.462v4.156H3.924V17.469a1.384,1.384,0,0,1,1.385-1.385H8.08a1.384,1.384,0,0,1,1.385,1.385v4.156H8.542Z" transform="translate(-0.229 -0.368)" stroke="#000" stroke-width="1"/>
      <path id="Path_37067" data-name="Path 37067" d="M4.924,23H9.542v.462a.457.457,0,0,1-.462.462H4.462A.457.457,0,0,1,4,23.462V23Z" transform="translate(-0.306 -1.743)" stroke="#000" stroke-width="1"/>
      <path id="Path_37068" data-name="Path 37068" d="M1.616.2,11.767,1.741a1.38,1.38,0,0,1,1.164,1.367v5.3l-.369-.074a.485.485,0,0,0-.388.092.491.491,0,0,0-.166.36V3.108a.467.467,0,0,0-.388-.462L1.469,1.113A.256.256,0,0,0,1.385,1.1a.436.436,0,0,0-.3.111.442.442,0,0,0-.166.351V20.8a.463.463,0,0,0,.462.462H3.694v.462a.457.457,0,0,0,.462.462H1.385A1.384,1.384,0,0,1,0,20.8V1.565A1.36,1.36,0,0,1,.49.513,1.386,1.386,0,0,1,1.616.2Z" transform="translate(0 0)" stroke="#000" stroke-width="1"/>
    </g>
  </g>
</svg>
