<svg xmlns="http://www.w3.org/2000/svg" width="22" height="22.263" viewBox="0 0 22 22.263">
  <g id="svgexport-18" transform="translate(-1.04 -0.67)">
    <path id="Path_36898" data-name="Path 36898" d="M19.022,21.156h1.311a.931.931,0,0,0,.931-.931V10.471a.923.923,0,0,1,.8-.935.889.889,0,0,1,.98.884v9.806a2.707,2.707,0,0,1-2.707,2.707H19.022a.888.888,0,1,1,0-1.776ZM3.747,22.933A2.707,2.707,0,0,1,1.04,20.226V4.219A2.707,2.707,0,0,1,3.747,1.512H5.371a.884.884,0,0,1,1.766,0s0,.032,0,.032V3.289a.886.886,0,0,1-1.769,0H3.747a.931.931,0,0,0-.931.931V6.333H21.264V4.219a.931.931,0,0,0-.931-.931H18.709a.884.884,0,0,1-1.766,0H12.925a.886.886,0,0,1-1.769,0H9.517a.94.94,0,0,1-.942-.755A.906.906,0,0,1,9.5,1.512h1.652a.886.886,0,0,1,1.769,0h4.018a.884.884,0,0,1,1.766,0h1.624A2.707,2.707,0,0,1,23.04,4.219V6.888A1.222,1.222,0,0,1,21.818,8.11h-19V20.226a.931.931,0,0,0,.931.931H5.058a.888.888,0,0,1,0,1.776Z" transform="translate(0 0)"/>
    <path id="Path_36899" data-name="Path 36899" d="M21.121,29.575a6,6,0,1,0,6,6A6,6,0,0,0,21.121,29.575Zm0,10.384a4.388,4.388,0,1,1,4.388-4.388A4.393,4.393,0,0,1,21.121,39.959Z" transform="translate(-9.081 -18.635)"/>
    <path id="Path_36900" data-name="Path 36900" d="M28.687,40.074a.924.924,0,0,0-.655.264l-2.047,2.047-.67-.67a.944.944,0,0,0-1.3,0,.926.926,0,0,0,0,1.3l1.326,1.325a.911.911,0,0,0,.65.269.928.928,0,0,0,.665-.272l2.687-2.687a.938.938,0,0,0,0-1.312A.924.924,0,0,0,28.687,40.074Z" transform="translate(-14.64 -25.404)"/>
  </g>
</svg>
