<svg id="calendar4-week" xmlns="http://www.w3.org/2000/svg" width="22" height="22" viewBox="0 0 22 22">
  <path id="Path_37205" data-name="Path 37205" d="M19.25,3.625H2.75A1.375,1.375,0,0,0,1.375,5V20.125A1.375,1.375,0,0,0,2.75,21.5h16.5a1.375,1.375,0,0,0,1.375-1.375V5A1.375,1.375,0,0,0,19.25,3.625ZM2.75,2.25A2.75,2.75,0,0,0,0,5V20.125a2.75,2.75,0,0,0,2.75,2.75h16.5A2.75,2.75,0,0,0,22,20.125V5a2.75,2.75,0,0,0-2.75-2.75Z" transform="translate(0 -0.875)" fill-rule="evenodd"/>
  <path id="Path_37206" data-name="Path 37206" d="M19.25,3.625H2.75A1.375,1.375,0,0,0,1.375,5V6.375h19.25V5A1.375,1.375,0,0,0,19.25,3.625ZM2.75,2.25A2.75,2.75,0,0,0,0,5V7.75H22V5a2.75,2.75,0,0,0-2.75-2.75Z" transform="translate(0 -0.875)" fill-rule="evenodd"/>
  <path id="Path_37207" data-name="Path 37207" d="M7.438,0a.687.687,0,0,1,.688.688v.688a.688.688,0,1,1-1.375,0V.688A.688.688,0,0,1,7.438,0ZM19.813,0A.687.687,0,0,1,20.5.688v.688a.688.688,0,1,1-1.375,0V.688A.687.687,0,0,1,19.813,0Z" transform="translate(-2.625)" fill-rule="evenodd"/>
  <path id="Path_37208" data-name="Path 37208" d="M17.75,16.438a.687.687,0,0,1,.688-.687h1.375a.687.687,0,0,1,.688.687v1.375a.687.687,0,0,1-.687.688H18.438a.687.687,0,0,1-.687-.687Zm-4.125,0a.687.687,0,0,1,.688-.687h1.375a.688.688,0,0,1,.688.687v1.375a.688.688,0,0,1-.687.688H14.313a.688.688,0,0,1-.688-.687Zm-2.75,4.125a.688.688,0,0,1,.688-.687h1.375a.687.687,0,0,1,.688.688v1.375a.687.687,0,0,1-.687.688H11.563a.687.687,0,0,1-.687-.687Zm-4.125,0a.688.688,0,0,1,.688-.687H8.813a.687.687,0,0,1,.688.688v1.375a.687.687,0,0,1-.687.688H7.438a.688.688,0,0,1-.687-.687Z" transform="translate(-2.625 -6.125)"/>
</svg>
