<svg xmlns="http://www.w3.org/2000/svg" width="22" height="20.429" viewBox="0 0 22 20.429">
  <g id="chat" transform="translate(-2.25 -4.5)">
    <path id="Path_37254" data-name="Path 37254" d="M14.617,24.929l-1.367-.786,3.143-5.5h4.714a1.571,1.571,0,0,0,1.571-1.571V7.643a1.571,1.571,0,0,0-1.571-1.571H5.393A1.571,1.571,0,0,0,3.821,7.643v9.429a1.571,1.571,0,0,0,1.571,1.571h7.071v1.571H5.393A3.143,3.143,0,0,1,2.25,17.071V7.643A3.143,3.143,0,0,1,5.393,4.5H21.107A3.143,3.143,0,0,1,24.25,7.643v9.429a3.143,3.143,0,0,1-3.143,3.143H17.3Z" transform="translate(0 0)"/>
    <path id="Path_37255" data-name="Path 37255" d="M9,11.25H21.571v1.571H9Z" transform="translate(-2.036 -2.036)"/>
    <path id="Path_37256" data-name="Path 37256" d="M9,18h7.857v1.571H9Z" transform="translate(-2.036 -4.071)"/>
  </g>
</svg>
