<svg id="svgexport-8_3_" data-name="svgexport-8 (3)" xmlns="http://www.w3.org/2000/svg" width="22" height="26.567" viewBox="0 0 22 26.567">
  <path id="Path_36901" data-name="Path 36901" d="M62.275,11.054V1.8a1.8,1.8,0,0,0-1.8-1.8H45.814a1.8,1.8,0,0,0-1.8,1.8V21.027a1.8,1.8,0,0,0,1.8,1.8H56.879v2.906a.831.831,0,0,0,1.242.721l2.494-1.425c2.754,1.574,2.61,1.534,2.906,1.534a.831.831,0,0,0,.83-.83V20.079A5.4,5.4,0,0,0,62.275,11.054ZM45.814,21.17a.143.143,0,0,1-.142-.142V1.8a.143.143,0,0,1,.142-.142H60.472a.143.143,0,0,1,.142.142v8.99a5.394,5.394,0,0,0-3.736,9.286V21.17ZM62.69,24.305l-1.664-.951a.83.83,0,0,0-.824,0l-1.664.951V21.17a5.391,5.391,0,0,0,4.151,0v3.136Zm-2.075-4.381a3.736,3.736,0,1,1,3.736-3.736A3.74,3.74,0,0,1,60.615,19.925Z" transform="translate(-44.011)"/>
  <path id="Path_36902" data-name="Path 36902" d="M136.048,94.165c-.324,0-.366-.077-1.705-.97a.83.83,0,0,1,.921-1.382l.555.37,1.2-1.8a.83.83,0,0,1,1.382.921L136.74,93.8a.83.83,0,0,1-.692.37Zm-4.15-12.5h-7.057a.83.83,0,0,1,0-1.66H131.9a.83.83,0,1,1,0,1.66Zm0,3.321h-7.057a.83.83,0,0,1,0-1.66H131.9a.83.83,0,1,1,0,1.66ZM128.992,88.3h-4.151a.83.83,0,0,1,0-1.66h4.151a.83.83,0,0,1,0,1.66Z" transform="translate(-119.86 -75.849)"/>
</svg>
