<svg xmlns="http://www.w3.org/2000/svg" width="22" height="17.594" viewBox="0 0 22 17.594">
  <path id="_331d7265ebeab2ebe8252c020cfa0507" data-name="331d7265ebeab2ebe8252c020cfa0507" d="M23.9,12.357C21.683,7.2,17.5,4,13,4S4.31,7.2,2.088,12.357a1.1,1.1,0,0,0,0,.88C4.31,18.394,8.488,21.594,13,21.594s8.687-3.2,10.908-8.357A1.1,1.1,0,0,0,23.9,12.357ZM13,19.395c-3.486,0-6.785-2.518-8.687-6.6,1.9-4.08,5.2-6.6,8.687-6.6s6.785,2.518,8.687,6.6C19.781,16.877,16.482,19.395,13,19.395Zm0-11a4.4,4.4,0,1,0,4.4,4.4A4.4,4.4,0,0,0,13,8.4ZM13,15a2.2,2.2,0,1,1,2.2-2.2A2.2,2.2,0,0,1,13,15Z" transform="translate(-1.997 -4)"/>
</svg>
