<svg xmlns="http://www.w3.org/2000/svg" width="22" height="19.394" viewBox="0 0 22 19.394">
  <g id="license-line" transform="translate(-2 -6)">
    <path id="Path_37194" data-name="Path 37194" d="M22.625,6H3.375A1.375,1.375,0,0,0,2,7.375v13.75A1.375,1.375,0,0,0,3.375,22.5H13.687l.392-.481.639-.784-.062-.11H3.375V7.375h19.25V13.26A5.782,5.782,0,0,1,24,14.5V7.375A1.375,1.375,0,0,0,22.625,6Z" transform="translate(0 0)"/>
    <path id="Path_37195" data-name="Path 37195" d="M7,12H18.688v1.1H7Z" transform="translate(-1.562 -1.875)"/>
    <path id="Path_37196" data-name="Path 37196" d="M7,16h7.562v1.1H7Z" transform="translate(-1.562 -3.125)"/>
    <path id="Path_37197" data-name="Path 37197" d="M7,23h6.875v1.1H7Z" transform="translate(-1.562 -5.312)"/>
    <path id="Path_37198" data-name="Path 37198" d="M25.457,17.23a4.373,4.373,0,0,0-3.025,7.563L21.1,26.422l.619,2.482,2.516-3.066a4.3,4.3,0,0,0,2.441,0L29.19,28.9l.619-2.482-1.334-1.629A4.372,4.372,0,0,0,25.45,17.23Zm0,7.343a2.963,2.963,0,1,1,3-2.963A2.963,2.963,0,0,1,25.457,24.572Z" transform="translate(-5.953 -3.509)"/>
  </g>
</svg>
