<svg xmlns="http://www.w3.org/2000/svg" width="22" height="25.667" viewBox="0 0 22 25.667">
  <g id="svgexport-19" transform="translate(-4 -2)">
    <path id="Path_37080" data-name="Path 37080" d="M21.417,27.667A4.589,4.589,0,0,0,26,23.083V6.583A4.589,4.589,0,0,0,21.417,2H8.583A4.589,4.589,0,0,0,4,6.583v16.5a4.589,4.589,0,0,0,4.583,4.583ZM5.833,6.583a2.753,2.753,0,0,1,2.75-2.75H21.417a2.753,2.753,0,0,1,2.75,2.75v16.5a2.753,2.753,0,0,1-2.75,2.75H8.583a2.753,2.753,0,0,1-2.75-2.75Z"/>
    <path id="Path_37081" data-name="Path 37081" d="M14.225,15.161h8.361c.577,0,1.045-.33,1.045-.737s-.468-.737-1.045-.737H14.225c-.577,0-1.045.33-1.045.737S13.648,15.161,14.225,15.161Zm0-3.686h8.361c.577,0,1.045-.33,1.045-.737S23.164,10,22.587,10H14.225c-.577,0-1.045.33-1.045.737S13.648,11.474,14.225,11.474Zm0,7.372h8.361c.577,0,1.045-.33,1.045-.737s-.468-.737-1.045-.737H14.225c-.577,0-1.045.33-1.045.737S13.648,18.847,14.225,18.847Zm-4.16-7.372c.577,0,1.045-.33,1.045-.737S10.643,10,10.065,10h-.01c-.577,0-1.04.33-1.04.737S9.488,11.474,10.065,11.474Zm0,3.686c.577,0,1.045-.33,1.045-.737s-.468-.737-1.045-.737h-.01c-.577,0-1.04.33-1.04.737S9.488,15.161,10.065,15.161Zm0,3.686c.577,0,1.045-.33,1.045-.737s-.468-.737-1.045-.737h-.01c-.577,0-1.04.33-1.04.737S9.488,18.847,10.065,18.847Z" transform="translate(-1.318 0.41)"/>
  </g>
</svg>
