<svg xmlns="http://www.w3.org/2000/svg" width="22" height="30.8" viewBox="0 0 22 30.8">
  <g id="svgexport-15_12_" data-name="svgexport-15 (12)" transform="translate(-6 -2)">
    <path id="_13-Unlock" data-name="13-Unlock" d="M24.7,13H11.5V9.381A5.181,5.181,0,0,1,16.681,4.2h.638A5.181,5.181,0,0,1,22.5,9.381a1.1,1.1,0,1,0,2.2,0A7.392,7.392,0,0,0,17.319,2h-.638A7.392,7.392,0,0,0,9.3,9.381V13A3.3,3.3,0,0,0,6,16.3V26.53a6.281,6.281,0,0,0,6.27,6.27h9.46A6.281,6.281,0,0,0,28,26.53V16.3A3.3,3.3,0,0,0,24.7,13Zm1.1,13.53a4.07,4.07,0,0,1-4.07,4.07H12.27A4.07,4.07,0,0,1,8.2,26.53V16.3a1.1,1.1,0,0,1,1.1-1.1H24.7a1.1,1.1,0,0,1,1.1,1.1Zm-7.7-3.938V26.2a1.1,1.1,0,0,1-2.2,0V22.592a2.2,2.2,0,1,1,2.2,0Z"/>
  </g>
</svg>
