<svg xmlns="http://www.w3.org/2000/svg" width="22" height="16.908" viewBox="0 0 22 16.908">
  <path id="photo" d="M7.333,4.932a2,2,0,0,1-.642,1.5,2.166,2.166,0,0,1-1.558.616,2.166,2.166,0,0,1-1.558-.616,2,2,0,0,1-.642-1.5,2,2,0,0,1,.642-1.5,2.166,2.166,0,0,1,1.558-.616,2.166,2.166,0,0,1,1.558.616A2,2,0,0,1,7.333,4.932ZM19.067,9.159V14.09H2.933V11.977L6.6,8.454l1.833,1.761L14.3,4.579Zm1.1-7.75H1.833a.36.36,0,0,0-.258.1.332.332,0,0,0-.109.248V15.147a.332.332,0,0,0,.109.248.36.36,0,0,0,.258.1H20.167a.36.36,0,0,0,.258-.1.332.332,0,0,0,.109-.248V1.761a.332.332,0,0,0-.109-.248.36.36,0,0,0-.258-.1ZM22,1.761V15.147a1.663,1.663,0,0,1-.538,1.244,1.8,1.8,0,0,1-1.295.517H1.833a1.8,1.8,0,0,1-1.295-.517A1.663,1.663,0,0,1,0,15.147V1.761A1.663,1.663,0,0,1,.538.517,1.8,1.8,0,0,1,1.833,0H20.167a1.8,1.8,0,0,1,1.295.517A1.663,1.663,0,0,1,22,1.761Z"/>
</svg>
