<svg xmlns="http://www.w3.org/2000/svg" width="22" height="22" viewBox="0 0 22 22">
  <path id="save" d="M26.234,9.349,21.651,4.766A.917.917,0,0,0,21,4.5H6.333A1.833,1.833,0,0,0,4.5,6.333V24.667A1.833,1.833,0,0,0,6.333,26.5H24.667A1.833,1.833,0,0,0,26.5,24.667V10A.917.917,0,0,0,26.234,9.349Zm-14.4-3.016h7.333V10H11.833Zm7.333,18.333H11.833V17.333h7.333Zm1.833,0V17.333A1.833,1.833,0,0,0,19.167,15.5H11.833A1.833,1.833,0,0,0,10,17.333v7.333H6.333V6.333H10V10a1.833,1.833,0,0,0,1.833,1.833h7.333A1.833,1.833,0,0,0,21,10V6.709l3.667,3.667V24.667Z" transform="translate(-4.5 -4.5)"/>
</svg>
