<svg xmlns="http://www.w3.org/2000/svg" width="22" height="22.596" viewBox="0 0 22 22.596">
  <g id="settings" transform="translate(0)">
    <path id="Path_37103" data-name="Path 37103" d="M22.613,14.208V12.97l1.554-1.36a1.619,1.619,0,0,0,.307-2.064l-1.91-3.237a1.631,1.631,0,0,0-1.918-.728l-1.967.663a9.186,9.186,0,0,0-1.06-.607L17.206,3.6a1.619,1.619,0,0,0-1.619-1.3H11.8a1.619,1.619,0,0,0-1.619,1.3L9.768,5.637A9.29,9.29,0,0,0,8.7,6.244l-1.926-.7A1.619,1.619,0,0,0,6.257,5.5a1.619,1.619,0,0,0-1.4.809L2.947,9.546a1.619,1.619,0,0,0,.332,2.031l1.529,1.4v1.238l-1.529,1.36a1.619,1.619,0,0,0-.332,2.064l1.91,3.237a1.631,1.631,0,0,0,1.918.728l1.967-.663a9.186,9.186,0,0,0,1.06.607l.413,2.039a1.619,1.619,0,0,0,1.619,1.3h3.82a1.619,1.619,0,0,0,1.619-1.3l.413-2.039a9.291,9.291,0,0,0,1.068-.607l1.959.663a1.631,1.631,0,0,0,1.918-.728l1.845-3.237a1.619,1.619,0,0,0-.332-2.031Zm-1.449,5.859-2.776-.939a7.17,7.17,0,0,1-2.193,1.27L15.62,23.3H11.8l-.575-2.873A7.575,7.575,0,0,1,9.04,19.16l-2.783.906L4.347,16.83l2.2-1.942a7.2,7.2,0,0,1,0-2.533l-2.2-2,1.91-3.237,2.776.939a7.17,7.17,0,0,1,2.193-1.27L11.8,3.881h3.82L16.2,6.754a7.575,7.575,0,0,1,2.185,1.27l2.783-.906,1.91,3.237-2.2,1.942a7.2,7.2,0,0,1,0,2.533l2.2,2Z" transform="translate(-2.715 -2.295)"/>
    <path id="Path_37104" data-name="Path 37104" d="M16.106,20.961a4.808,4.808,0,1,1,3.448-1.408A4.856,4.856,0,0,1,16.106,20.961Zm0-8.093a3.164,3.164,0,1,0,2.311.926,3.164,3.164,0,0,0-2.311-.926Z" transform="translate(-5.11 -4.808)"/>
  </g>
</svg>
