<svg id="svgexport-15_17_" data-name="svgexport-15 (17)" xmlns="http://www.w3.org/2000/svg" width="22" height="27.768" viewBox="0 0 22 27.768">
  <path id="Path_37156" data-name="Path 37156" d="M15.464.215A.672.672,0,0,0,14.981,0H4.149A3.664,3.664,0,0,0,.5,3.642V24.126a3.664,3.664,0,0,0,3.649,3.642h14.7A3.664,3.664,0,0,0,22.5,24.126V7.861a.722.722,0,0,0-.194-.469Zm.194,2.153L20.24,7.177H17.262a1.6,1.6,0,0,1-1.6-1.6Zm3.193,24.059H4.149a2.323,2.323,0,0,1-2.307-2.3V3.642a2.323,2.323,0,0,1,2.307-2.3H14.317V5.58a2.934,2.934,0,0,0,2.945,2.938h3.9V24.126A2.319,2.319,0,0,1,18.851,26.427Zm0,0" transform="translate(-0.5 0)"/>
  <path id="Path_37157" data-name="Path 37157" d="M100.883,182.86H89.843a.671.671,0,1,0,0,1.341H100.89a.671.671,0,1,0-.007-1.341Zm-8.954-7.217,2.763-2.972V180a.671.671,0,1,0,1.341,0v-7.324l2.763,2.971a.669.669,0,0,0,.979-.912l-3.931-4.219a.666.666,0,0,0-.979,0l-3.931,4.219a.669.669,0,0,0,.034.946A.684.684,0,0,0,91.929,175.643Zm0,0" transform="translate(-84.363 -161.061)"/>
</svg>
