<svg xmlns="http://www.w3.org/2000/svg" width="22" height="20.533" viewBox="0 0 22 20.533">
  <g id="user-profile" transform="translate(-2.25 -2.25)">
    <path id="Path_37189" data-name="Path 37189" d="M10.758,3.717A3.667,3.667,0,1,1,7.092,7.383a3.667,3.667,0,0,1,3.667-3.667m0-1.467a5.133,5.133,0,1,0,5.133,5.133A5.133,5.133,0,0,0,10.758,2.25Z" transform="translate(-1.175 0)"/>
    <path id="Path_37190" data-name="Path 37190" d="M16.917,29.05H15.45V25.383a3.667,3.667,0,0,0-3.667-3.667h-4.4a3.667,3.667,0,0,0-3.667,3.667V29.05H2.25V25.383A5.133,5.133,0,0,1,7.383,20.25h4.4a5.133,5.133,0,0,1,5.133,5.133Z" transform="translate(0 -6.267)"/>
    <path id="Path_37191" data-name="Path 37191" d="M24.75,4.5h7.333V5.967H24.75Z" transform="translate(-7.833 -0.783)"/>
    <path id="Path_37192" data-name="Path 37192" d="M24.75,10.125h7.333v1.467H24.75Z" transform="translate(-7.833 -2.742)"/>
    <path id="Path_37193" data-name="Path 37193" d="M24.75,15.75h5.133v1.467H24.75Z" transform="translate(-7.833 -4.7)"/>
  </g>
</svg>
