<svg id="svgexport-15_11_" data-name="svgexport-15 (11)" xmlns="http://www.w3.org/2000/svg" width="22" height="26.369" viewBox="0 0 22 26.369">
  <path id="Path_36894" data-name="Path 36894" d="M10.834,12.7a6.146,6.146,0,0,0,4.491-1.861,6.146,6.146,0,0,0,1.861-4.49A6.146,6.146,0,0,0,15.324,1.86,6.147,6.147,0,0,0,10.834,0,6.145,6.145,0,0,0,6.343,1.861a6.146,6.146,0,0,0-1.861,4.49,6.146,6.146,0,0,0,1.861,4.491,6.147,6.147,0,0,0,4.49,1.861Zm-3.4-9.749a4.59,4.59,0,0,1,3.4-1.408,4.591,4.591,0,0,1,3.4,1.408,4.592,4.592,0,0,1,1.408,3.4,4.591,4.591,0,0,1-1.408,3.4,4.591,4.591,0,0,1-3.4,1.408,4.592,4.592,0,0,1-3.4-1.408,4.59,4.59,0,0,1-1.408-3.4,4.591,4.591,0,0,1,1.408-3.4ZM21.947,20.277a15.689,15.689,0,0,0-.214-1.666,13.118,13.118,0,0,0-.41-1.675,8.273,8.273,0,0,0-.689-1.562A5.889,5.889,0,0,0,19.6,14.02a4.58,4.58,0,0,0-1.492-.937,5.157,5.157,0,0,0-1.9-.345,1.933,1.933,0,0,0-1.032.438q-.536.349-1.075.693a6.16,6.16,0,0,1-1.391.613,5.4,5.4,0,0,1-3.4,0,6.146,6.146,0,0,1-1.39-.613c-.4-.256-.762-.489-1.076-.694A1.931,1.931,0,0,0,5.8,12.737a5.148,5.148,0,0,0-1.9.345A4.575,4.575,0,0,0,2.4,14.02a5.891,5.891,0,0,0-1.038,1.353,8.294,8.294,0,0,0-.689,1.563,13.15,13.15,0,0,0-.41,1.675,15.581,15.581,0,0,0-.214,1.667C.018,20.781,0,21.3,0,21.834a4.379,4.379,0,0,0,1.3,3.313,4.681,4.681,0,0,0,3.351,1.222h12.7A4.682,4.682,0,0,0,20.7,25.147,4.377,4.377,0,0,0,22,21.834C22,21.3,21.982,20.779,21.947,20.277Zm-2.313,3.751a3.152,3.152,0,0,1-2.286.8H4.652a3.152,3.152,0,0,1-2.286-.8,2.86,2.86,0,0,1-.821-2.193c0-.494.016-.982.049-1.45a14.026,14.026,0,0,1,.193-1.5,11.6,11.6,0,0,1,.36-1.477,6.749,6.749,0,0,1,.561-1.27,4.365,4.365,0,0,1,.763-1,3.037,3.037,0,0,1,.992-.617,3.555,3.555,0,0,1,1.217-.235c.054.029.15.084.307.186.318.207.684.443,1.089.7a7.655,7.655,0,0,0,1.746.78,6.947,6.947,0,0,0,4.354,0,7.664,7.664,0,0,0,1.747-.781c.414-.265.77-.494,1.088-.7.156-.1.253-.157.307-.185a3.557,3.557,0,0,1,1.217.235,3.043,3.043,0,0,1,.992.617,4.355,4.355,0,0,1,.763,1,6.724,6.724,0,0,1,.561,1.27,11.58,11.58,0,0,1,.361,1.477,14.174,14.174,0,0,1,.193,1.5h0c.033.467.049.954.049,1.45a2.859,2.859,0,0,1-.821,2.193Zm0,0" transform="translate(0 0)"/>
</svg>
