<svg xmlns="http://www.w3.org/2000/svg" width="22" height="19.643" viewBox="0 0 22 19.643">
  <g id="wallet" transform="translate(-2.25 -3.375)">
    <path id="Path_37107" data-name="Path 37107" d="M24.75,19.125h1.571V20.7H24.75Z" transform="translate(-6.786 -4.75)"/>
    <path id="Path_37108" data-name="Path 37108" d="M22.679,7.3H3.821V4.946H21.107V3.375H3.821A1.571,1.571,0,0,0,2.25,4.946v16.5a1.571,1.571,0,0,0,1.571,1.571H22.679a1.571,1.571,0,0,0,1.571-1.571V8.875A1.571,1.571,0,0,0,22.679,7.3ZM3.821,21.446V8.875H22.679v2.357H16.393A1.571,1.571,0,0,0,14.821,12.8v4.714a1.571,1.571,0,0,0,1.571,1.571h6.286v2.357ZM22.679,12.8v4.714H16.393V12.8Z" transform="translate(0 0)"/>
  </g>
</svg>
