<?xml version="1.0" standalone="no"?>
<!DOCTYPE svg PUBLIC "-//W3C//DTD SVG 1.1//EN" "http://www.w3.org/Graphics/SVG/1.1/DTD/svg11.dtd" >
<svg xmlns="http://www.w3.org/2000/svg">
<metadata>Generated by IcoMoon</metadata>
<defs>
<font id="icomoon" horiz-adv-x="1024">
<font-face units-per-em="1024" ascent="960" descent="-64" />
<missing-glyph horiz-adv-x="1024" />
<glyph unicode="&#x20;" horiz-adv-x="512" d="" />
<glyph unicode="&#xe900;" glyph-name="asset" d="M368.407 155.415c-80.795 0-146.292 65.497-146.292 146.292s65.497 146.292 146.292 146.292c80.795 0 146.292-65.497 146.292-146.292v0c0-80.795-65.497-146.292-146.292-146.292v0zM368.407 374.831c-40.345-0.053-73.030-32.771-73.030-73.123 0-40.385 32.738-73.123 73.123-73.123s73.123 32.738 73.123 73.123v0c0 0.014 0 0.030 0 0.047 0 40.385-32.738 73.123-73.123 73.123-0.033 0-0.066 0-0.098 0h0.005zM1024 813.708c-0.079 80.763-65.529 146.213-146.285 146.292h-0.008c-24.881-0.175-48.219-6.62-68.562-17.831l0.745 0.376-599.412-310.132c-125.358-59.714-210.45-185.389-210.45-330.938 0-201.821 163.608-365.428 365.428-365.428 146.264 0 272.457 85.93 330.851 210.061l0.944 2.232 310.412 599.878c10.11 19.003 16.13 41.52 16.337 65.425v0.065zM877.708 886.877c40.385 0 73.123-32.738 73.123-73.123s-32.738-73.123-73.123-73.123c-40.385 0-73.123 32.738-73.123 73.123v0c0 40.385 32.738 73.123 73.123 73.123v0zM732.113 820.736c0-2.374-0.698-4.655-0.698-7.028 0.079-80.763 65.529-146.213 146.285-146.292h0.008c2.374 0 4.655 0.605 6.842 0.698l-158.255-305.804c-26.922 153.713-146.627 273.166-298.269 299.394l-2.182 0.312zM365.708 9.123c-161.59 0-292.585 130.995-292.585 292.585s130.995 292.585 292.585 292.585c161.59 0 292.585-130.995 292.585-292.585v0c0-161.59-130.995-292.585-292.585-292.585v0z" />
<glyph unicode="&#xe901;" glyph-name="calendar" d="M298.667 853.334v-42.667h-85.333c-35.328 0-67.413-14.379-90.496-37.504s-37.504-55.168-37.504-90.496v-597.333c0-35.328 14.379-67.413 37.504-90.496s55.168-37.504 90.496-37.504h597.333c35.328 0 67.413 14.379 90.496 37.504s37.504 55.168 37.504 90.496v597.333c0 35.328-14.379 67.413-37.504 90.496s-55.168 37.504-90.496 37.504h-85.333v42.667c0 23.552-19.115 42.667-42.667 42.667s-42.667-19.115-42.667-42.667v-42.667h-256v42.667c0 23.552-19.115 42.667-42.667 42.667s-42.667-19.115-42.667-42.667zM853.333 554.667h-682.667v128c0 11.776 4.736 22.4 12.501 30.165s18.389 12.501 30.165 12.501h85.333v-42.667c0-23.552 19.115-42.667 42.667-42.667s42.667 19.115 42.667 42.667v42.667h256v-42.667c0-23.552 19.115-42.667 42.667-42.667s42.667 19.115 42.667 42.667v42.667h85.333c11.776 0 22.4-4.736 30.165-12.501s12.501-18.389 12.501-30.165zM170.667 469.334h682.667v-384c0-11.776-4.736-22.4-12.501-30.165s-18.389-12.501-30.165-12.501h-597.333c-11.776 0-22.4 4.736-30.165 12.501s-12.501 18.389-12.501 30.165z" />
<glyph unicode="&#xe902;" glyph-name="refresh-cw" d="M189.995 540.416c31.445 88.875 95.872 156.544 174.763 194.219s172.032 45.184 260.864 13.739c50.603-17.92 94.123-46.421 127.275-80.213l120.747-113.493h-148.309c-23.552 0-42.667-19.115-42.667-42.667s19.115-42.667 42.667-42.667h255.872c0.213 0 0.384 0 0.597 0 5.845 0.043 11.435 1.323 16.469 3.499 5.077 2.176 9.771 5.376 13.824 9.6 0.512 0.555 1.024 1.109 1.536 1.664 3.2 3.712 5.675 7.808 7.381 12.16s2.731 9.003 2.944 13.909c0.043 0.64 0.043 1.237 0.043 1.835v256c0 23.552-19.115 42.667-42.667 42.667s-42.667-19.115-42.667-42.667v-157.397l-124.843 117.291c-42.325 43.093-96.896 78.635-159.701 100.864-111.061 39.296-227.627 29.824-326.101-17.152s-179.157-131.669-218.453-242.731c-7.893-22.187 3.755-46.549 25.941-54.443s46.592 3.755 54.443 25.984zM85.333 242.688l126.080-118.485c82.304-82.389 191.573-124.075 300.715-124.117s218.411 41.6 301.739 124.885c47.104 47.104 81.109 102.699 100.736 159.787 7.68 22.272-4.181 46.549-26.496 54.229s-46.549-4.181-54.229-26.496c-15.403-44.8-42.368-89.216-80.341-127.189-66.688-66.645-153.984-99.925-241.365-99.925s-174.677 33.365-242.304 100.949l-119.467 112.341h148.267c23.552 0 42.667 19.115 42.667 42.667s-19.115 42.667-42.667 42.667h-255.872c-0.213 0-0.384 0-0.597 0-5.845-0.043-11.435-1.323-16.469-3.499-5.077-2.176-9.771-5.376-13.824-9.6-0.512-0.555-1.024-1.109-1.536-1.664-3.2-3.712-5.675-7.808-7.381-12.16s-2.731-9.003-2.944-13.909c-0.043-0.64-0.043-1.237-0.043-1.835v-256c0-23.552 19.115-42.667 42.667-42.667s42.667 19.115 42.667 42.667z" />
<glyph unicode="&#xe903;" glyph-name="calendar-week" d="M896 832v0c35.346 0 64-28.654 64-64v-704c0-35.346-28.654-64-64-64h-768c-35.346 0-64 28.654-64 64v704c0 35.346 28.654 64 64 64h768zM128 896c-70.692 0-128-57.308-128-128v0-704c0-70.692 57.308-128 128-128v0h768c70.692 0 128 57.308 128 128v0 704c0 70.692-57.308 128-128 128v0zM896 832v0c35.346 0 64-28.654 64-64v-64h-896v64c0 35.346 28.654 64 64 64h768zM128 896c-70.692 0-128-57.308-128-128v0-128h1024v128c0 70.692-57.308 128-128 128v0zM224.023 960c0.014 0 0.030 0 0.047 0 17.66 0 31.977-14.316 31.977-31.977 0-0.016 0-0.033 0-0.049v0.003-32.023c0.015-0.364 0.023-0.791 0.023-1.221 0-17.686-14.337-32.023-32.023-32.023s-32.023 14.337-32.023 32.023c0 0.429 0.008 0.857 0.025 1.282l-0.002-0.061v32.023c0 0 0 0 0 0 0 17.67 14.311 31.997 31.974 32.023h0.003zM800.023 960c0 0 0 0 0 0 17.66 0 31.977-14.316 31.977-31.977 0-0.016 0-0.033 0-0.049v0.003-32.023c0.015-0.364 0.023-0.791 0.023-1.221 0-17.686-14.337-32.023-32.023-32.023s-32.023 14.337-32.023 32.023c0 0.429 0.008 0.857 0.025 1.282l-0.002-0.061v32.023c0 0.014 0 0.030 0 0.047 0 17.66 14.316 31.977 31.977 31.977 0.016 0 0.033 0 0.049 0h-0.003zM704 479.977c0 0 0 0 0 0 0 17.66 14.316 31.977 31.977 31.977 0.016 0 0.033 0 0.049 0h63.997c0.014 0 0.030 0 0.047 0 17.66 0 31.977-14.316 31.977-31.977 0 0 0 0 0 0v0-64c0-0.014 0-0.030 0-0.047 0-17.66-14.316-31.977-31.977-31.977 0 0 0 0 0 0h-64.047c-17.66 0-31.977 14.316-31.977 31.977v0zM512 479.977c0 0 0 0 0 0 0 17.66 14.316 31.977 31.977 31.977 0.016 0 0.033 0 0.049 0h63.997c0 0 0 0 0 0 17.67 0 31.997-14.311 32.023-31.974v-64.003c0 0 0 0 0 0 0-17.67-14.311-31.997-31.974-32.023h-64.050c0 0 0 0 0 0-17.67 0-31.997 14.311-32.023 31.974v0.003zM384 287.977c0.027 17.666 14.354 31.977 32.023 31.977 0 0 0 0 0 0h64c0.014 0 0.030 0 0.047 0 17.66 0 31.977-14.316 31.977-31.977 0-0.016 0-0.033 0-0.049v0.003-64c0-0.014 0-0.030 0-0.047 0-17.66-14.316-31.977-31.977-31.977 0 0 0 0 0 0h-64.047c-17.66 0-31.977 14.316-31.977 31.977v0zM192 287.977c0.027 17.666 14.354 31.977 32.023 31.977 0 0 0 0 0 0h64c0.014 0 0.030 0 0.047 0 17.66 0 31.977-14.316 31.977-31.977 0-0.016 0-0.033 0-0.049v0.003-64c0-0.014 0-0.030 0-0.047 0-17.66-14.316-31.977-31.977-31.977 0 0 0 0 0 0h-64.047c-17.65 0.026-31.95 14.327-31.977 31.974v0.003z" />
<glyph unicode="&#xe904;" glyph-name="calender-check" horiz-adv-x="1012" d="M827.093 17.734h60.3c23.65 0 42.822 19.172 42.822 42.822v448.641c-0.006 0.277-0.010 0.602-0.010 0.929 0 21.455 15.916 39.193 36.585 42.052l0.222 0.025c1.255 0.137 2.711 0.215 4.186 0.215 22.578 0 40.881-18.298 40.89-40.874v-451.034c0-68.765-55.745-124.51-124.51-124.51v0h-60.484c-22.558 0-40.844 18.287-40.844 40.844s18.287 40.844 40.844 40.844v0zM124.51-64c-68.765 0-124.51 55.745-124.51 124.51v0 736.252c0 68.765 55.745 124.51 124.51 124.51v0h74.697c1.060 21.608 18.838 38.727 40.614 38.727s39.554-17.118 40.61-38.632l0.004-0.095s0-1.472 0-1.472v-80.262c-1.289-21.463-19.010-38.382-40.683-38.382s-39.394 16.918-40.678 38.269l-0.005 0.113h-74.559c-23.65 0-42.822-19.172-42.822-42.822v-97.189h848.527v97.235c0 23.65-19.172 42.822-42.822 42.822v0h-74.697c-1.060-21.608-18.838-38.727-40.614-38.727s-39.554 17.118-40.61 38.632l-0.004 0.095h-184.81c-1.289-21.463-19.010-38.382-40.683-38.382s-39.394 16.918-40.678 38.269l-0.005 0.113h-75.387c-0.278-0.006-0.607-0.010-0.936-0.010-20.871 0-38.287 14.788-42.344 34.457l-0.048 0.28c-0.216 1.594-0.339 3.436-0.339 5.307 0 23.015 18.657 41.672 41.672 41.672 0.427 0 0.852-0.006 1.275-0.019l-0.062 0.001h75.985c1.289 21.463 19.010 38.382 40.683 38.382s39.394-16.918 40.678-38.269l0.005-0.113h184.81c1.060 21.608 18.838 38.727 40.614 38.727s39.554-17.118 40.61-38.632l0.004-0.095h74.697c0.055 0 0.119 0 0.184 0 68.765 0 124.51-55.745 124.51-124.51v0-122.762c0-31.042-25.165-56.207-56.207-56.207v0h-873.916v-557.283c0-23.65 19.172-42.822 42.822-42.822v0h60.208c22.558 0 40.844-18.287 40.844-40.844s-18.287-40.844-40.844-40.844v0zM505.952 487.625c-152.416 0-275.974-123.558-275.974-275.974s123.558-275.974 275.974-275.974c152.416 0 275.974 123.558 275.974 275.974v0c0 152.416-123.558 275.974-275.974 275.974v0zM505.952 10.007c-111.467 0-201.829 90.362-201.829 201.829s90.362 201.829 201.829 201.829c111.467 0 201.829-90.362 201.829-201.829v0c-0.131-111.414-90.414-201.698-201.816-201.829h-0.013zM598.265 316.062c-0.113 0.001-0.247 0.002-0.382 0.002-11.584 0-22.086-4.635-29.752-12.151l-94.146-94.146-30.817 30.817c-7.769 7.388-18.302 11.933-29.897 11.933s-22.128-4.545-29.915-11.95l0.018 0.017c-7.577-7.685-12.257-18.245-12.257-29.897s4.679-22.212 12.261-29.902l60.985-60.939c7.593-7.643 18.108-12.373 29.729-12.373 0.059 0 0.118 0 0.177 0h-0.009c0.117-0.001 0.256-0.002 0.394-0.002 11.792 0 22.468 4.782 30.193 12.512l123.59 123.59c7.61 7.773 12.306 18.425 12.306 30.173s-4.696 22.4-12.313 30.181l0.007-0.008c-7.659 7.51-18.161 12.145-29.746 12.145-0.15 0-0.3-0.001-0.45-0.002h0.023z" />
<glyph unicode="&#xe905;" glyph-name="chat" horiz-adv-x="1103" d="M619.894-64l-68.521 39.398 157.542 275.687h236.288c43.49 0 78.746 35.256 78.746 78.746v0 472.627c0 43.49-35.256 78.746-78.746 78.746v0h-787.661c-0.015 0-0.032 0-0.050 0-43.49 0-78.746-35.256-78.746-78.746v0-472.627c0-43.49 35.256-78.746 78.746-78.746v0h354.433v-78.746h-354.382c-87.008 0-157.542 70.534-157.542 157.542v0 472.577c0 87.008 70.534 157.542 157.542 157.542v0h787.661c87.008 0 157.542-70.534 157.542-157.542v0-472.627c0-87.008-70.534-157.542-157.542-157.542v0h-190.825zM236.288 723.712h630.119v-78.746h-630.119zM236.288 487.373h393.831v-78.746h-393.831z" />
<glyph unicode="&#xe906;" glyph-name="cirtifcat" horiz-adv-x="848" d="M703.969 533.934v356.687c0 38.317-31.062 69.379-69.379 69.379v0h-565.094c-38.317 0-69.379-31.062-69.379-69.379v0-741.087c0-38.317 31.062-69.379 69.379-69.379v0h426.49v-112.009c0.027-17.669 14.357-31.982 32.030-31.982 5.826 0 11.289 1.556 15.996 4.274l-0.155-0.082 96.129 54.925c106.15-60.668 100.6-59.127 112.009-59.127 17.66 0.022 31.97 14.332 31.992 31.989v217.93c39.333 37.919 63.761 91.068 63.761 149.923 0 91.946-59.62 169.967-142.309 197.513l-1.469 0.424zM69.495 144.022c-3.014 0.022-5.452 2.459-5.473 5.471v741.127c0.022 3.014 2.459 5.452 5.471 5.473h564.981c3.014-0.022 5.452-2.459 5.473-5.471v-346.513c-0.015 0-0.034 0-0.052 0-114.824 0-207.907-93.083-207.907-207.907 0-58.92 24.509-112.115 63.889-149.947l0.070-0.066v-42.167zM719.964 23.187l-64.137 36.655c-4.561 2.653-10.038 4.22-15.88 4.22s-11.319-1.566-16.033-4.302l0.153 0.082-64.137-36.655v120.836c23.628-10.128 51.126-16.017 79.998-16.017s56.37 5.889 81.357 16.531l-1.358-0.514v-120.874zM639.986 192.048c-79.529 0-144.001 64.471-144.001 144.001s64.471 144.001 144.001 144.001c79.529 0 144.001-64.471 144.001-144.001v0c-0.066-79.511-64.493-143.951-143.992-144.039h-0.009zM623.951 254.027c-12.488 0-14.107 2.968-65.718 37.388-8.646 5.821-14.257 15.572-14.257 26.634 0 17.677 14.33 32.006 32.006 32.006 6.615 0 12.761-2.007 17.864-5.445l-0.114 0.072 21.392-14.261 46.253 69.379c5.821 8.646 15.572 14.257 26.634 14.257 17.677 0 32.006-14.33 32.006-32.006 0-6.615-2.007-12.761-5.445-17.864l0.072 0.114-64.022-96.206c-5.818-8.648-15.568-14.261-26.629-14.261-0.015 0-0.031 0-0.046 0h0.002zM463.993 735.828h-272.005c-17.668 0-31.992 14.323-31.992 31.992s14.323 31.992 31.992 31.992h272.083c17.668 0 31.992-14.323 31.992-31.992s-14.323-31.992-31.992-31.992v0zM463.993 607.823h-272.005c-17.668 0-31.992 14.323-31.992 31.992s14.323 31.992 31.992 31.992h272.083c17.668 0 31.992-14.323 31.992-31.992s-14.323-31.992-31.992-31.992v0zM351.984 480.088h-159.996c-17.668 0-31.992 14.323-31.992 31.992s14.323 31.992 31.992 31.992h159.996c17.668 0 31.992-14.323 31.992-31.992s-14.323-31.992-31.992-31.992v0z" />
<glyph unicode="&#xe907;" glyph-name="delete" horiz-adv-x="878" d="M292.554 594.277h73.129v-438.851h-73.129zM511.98 594.277h73.129v-438.851h-73.129zM0 813.703v-73.129h73.129v-731.446c0-40.388 32.741-73.129 73.129-73.129 0.014 0 0.028 0 0.042 0h585.106c40.388 0 73.129 32.741 73.129 73.129v0 731.446h73.169v73.129zM146.297 9.129v731.446h585.109v-731.446zM292.554 960h292.554v-73.129h-292.554z" />
<glyph unicode="&#xe908;" glyph-name="eye" d="M4.523 445.739c-5.803-11.691-6.229-25.728 0-38.144 0 0 16.896-33.664 47.787-78.635 19.243-27.989 44.288-61.099 74.965-94.635 38.144-41.771 85.504-84.779 141.611-119.467 68.053-42.069 149.589-72.192 243.115-72.192s175.061 30.123 243.115 72.192c56.107 34.688 103.467 77.696 141.611 119.467 30.635 33.536 55.723 66.645 74.965 94.635 30.891 44.971 47.787 78.635 47.787 78.635 5.803 11.691 6.229 25.728 0 38.144 0 0-16.896 33.664-47.787 78.635-19.243 27.989-44.288 61.099-74.965 94.635-38.144 41.771-85.504 84.779-141.611 119.467-68.053 42.069-149.589 72.192-243.115 72.192s-175.061-30.123-243.115-72.192c-56.107-34.688-103.467-77.696-141.611-119.467-30.677-33.536-55.723-66.603-74.965-94.635-30.891-44.971-47.787-78.635-47.787-78.635zM91.307 426.667c6.955 11.989 17.365 29.056 31.317 49.408 17.493 25.429 40.107 55.296 67.627 85.376 34.347 37.589 75.733 74.923 123.477 104.448 57.6 35.584 123.776 59.435 198.272 59.435s140.672-23.851 198.229-59.435c47.744-29.525 89.131-66.859 123.477-104.448 27.477-30.080 50.133-59.947 67.627-85.376 13.995-20.352 24.405-37.376 31.317-49.408-6.955-11.989-17.365-29.056-31.317-49.408-17.493-25.429-40.107-55.296-67.627-85.376-34.347-37.589-75.733-74.923-123.477-104.448-57.557-35.584-123.733-59.435-198.229-59.435s-140.672 23.851-198.229 59.435c-47.744 29.525-89.131 66.859-123.477 104.448-27.477 30.080-50.133 59.947-67.627 85.376-13.995 20.352-24.405 37.419-31.36 49.408zM682.667 426.667c0 47.104-19.157 89.856-50.005 120.661s-73.557 50.005-120.661 50.005-89.856-19.157-120.661-50.005-50.005-73.557-50.005-120.661 19.157-89.856 50.005-120.661 73.557-50.005 120.661-50.005 89.856 19.157 120.661 50.005 50.005 73.557 50.005 120.661zM597.333 426.667c0-23.595-9.515-44.843-25.003-60.331s-36.736-25.003-60.331-25.003-44.843 9.515-60.331 25.003-25.003 36.736-25.003 60.331 9.515 44.843 25.003 60.331 36.736 25.003 60.331 25.003 44.843-9.515 60.331-25.003 25.003-36.736 25.003-60.331z" />
<glyph unicode="&#xe909;" glyph-name="eye-off" d="M432.128 716.203c27.776 6.485 55.296 9.429 79.36 9.131 75.008 0 141.184-23.851 198.741-59.435 47.744-29.525 89.131-66.859 123.477-104.448 27.477-30.080 50.133-59.947 67.627-85.376 13.952-20.267 24.32-37.291 31.275-49.28-23.296-40.661-49.493-77.696-75.861-108.459-15.317-17.877-13.269-44.843 4.608-60.16s44.843-13.269 60.16 4.608c34.901 40.704 68.736 90.112 97.408 143.787 6.315 11.904 6.955 26.368 0.555 39.211 0 0-16.896 33.664-47.787 78.635-19.243 27.989-44.288 61.099-74.965 94.635-38.144 41.771-85.504 84.779-141.611 119.467-68.053 42.027-149.589 72.149-242.603 72.149-31.317 0.384-65.707-3.371-99.84-11.349-22.955-5.376-37.205-28.331-31.829-51.285s28.331-37.205 51.285-31.829zM427.819 450.475l107.989-107.989c-7.765-2.603-15.872-4.011-24.021-4.309-21.888-0.768-43.947 6.784-61.184 22.869s-26.325 37.547-27.093 59.435c-0.341 10.155 1.067 20.309 4.309 30.037zM255.275 623.062l108.928-108.928c-18.517-29.483-27.136-63.317-25.941-96.683 1.536-43.605 19.755-86.741 54.229-118.827s78.763-47.232 122.368-45.696c29.525 1.024 58.837 9.728 84.651 25.941l99.072-99.072c-58.795-34.091-123.52-51.029-187.051-51.797-73.984 0-140.16 23.851-197.717 59.435-47.744 29.525-89.131 66.859-123.477 104.448-27.477 30.080-50.133 59.947-67.627 85.376-13.909 20.267-24.32 37.248-31.232 49.237 44.8 77.739 101.376 144.171 163.883 196.565zM12.501 865.835l182.229-182.229c-73.856-63.104-139.477-143.275-189.653-236.757-6.315-11.904-6.997-26.411-0.555-39.253 0 0 16.896-33.664 47.787-78.635 19.243-27.989 44.288-61.099 74.965-94.635 38.144-41.771 85.504-84.779 141.611-119.467 68.053-42.069 149.589-72.192 243.627-72.192 85.035 1.024 171.477 25.643 248.107 75.051l190.549-190.549c16.683-16.683 43.691-16.683 60.331 0s16.683 43.691 0 60.331l-378.709 378.709c-0.085 0.085-0.213 0.213-0.299 0.299l-179.584 179.627c-0.341 0.299-0.683 0.683-1.024 1.024l-379.051 379.008c-16.683 16.683-43.691 16.683-60.331 0s-16.683-43.691 0-60.331z" />
<glyph unicode="&#xe90c;" glyph-name="edit" horiz-adv-x="1103" d="M0 14.796h1102.746v-78.746h-1102.746zM921.545 684.313c14.571 13.895 23.631 33.458 23.631 55.137s-9.060 41.242-23.601 55.109l-0.030 0.029-141.753 141.803c-13.895 14.571-33.458 23.631-55.137 23.631s-41.242-9.060-55.109-23.601l-0.029-0.030-590.771-590.771v-252.078h252.078zM724.655 881.254l141.753-141.803-118.144-118.144-141.753 141.753zM157.492 172.339v141.753l393.831 393.831 141.803-141.803-393.831-393.781z" />
<glyph unicode="&#xe90d;" glyph-name="plus" d="M213.333 384h256v-256c0-23.552 19.115-42.667 42.667-42.667s42.667 19.115 42.667 42.667v256h256c23.552 0 42.667 19.115 42.667 42.667s-19.115 42.667-42.667 42.667h-256v256c0 23.552-19.115 42.667-42.667 42.667s-42.667-19.115-42.667-42.667v-256h-256c-23.552 0-42.667-19.115-42.667-42.667s19.115-42.667 42.667-42.667z" />
<glyph unicode="&#xe90f;" glyph-name="license-line" horiz-adv-x="1162" d="M1088.997 960h-1016.397c-40.096 0-72.6-32.504-72.6-72.6v0-725.998c0-40.096 32.504-72.6 72.6-72.6v0h544.472l54.437 66.792-3.274 5.808h-595.635v725.998h1016.397v-310.727c28.069-18.281 52.027-39.971 72.146-64.891l0.454-0.581v376.199c0 40.096-32.504 72.6-72.6 72.6v0zM181.526 742.201h617.125v-58.080h-617.125zM181.526 597.001h399.272v-58.080h-399.272zM181.526 342.876h362.999v-58.080h-362.999zM924.208 552.332c-0.533 0.004-1.163 0.007-1.794 0.007-127.519 0-230.894-103.375-230.894-230.894 0-66.374 28.006-126.206 72.847-168.325l0.122-0.113-70.329-86.011 32.683-131.049 132.844 161.884c19.292-5.925 41.469-9.338 64.442-9.338s45.15 3.412 66.050 9.757l-1.608-0.42 132.739-161.673 32.683 131.049-70.435 86.011c44.876 42.214 72.823 101.983 72.823 168.279 0 127.49-103.351 230.841-230.841 230.841-0.598 0-1.196-0.002-1.793-0.007l0.092 0.001zM924.208 164.623c-85.558 1.103-154.492 70.718-154.492 156.434 0 86.403 70.043 156.446 156.446 156.446 86.398 0 156.439-70.036 156.446-156.433v-0.001c-0.023-86.385-70.058-156.405-156.446-156.405-0.687 0-1.373 0.004-2.058 0.013l0.104-0.001z" />
<glyph unicode="&#xe910;" glyph-name="list" horiz-adv-x="878" d="M694.861-64c100.94 0.136 182.728 81.938 182.841 182.87v658.288c-0.136 100.926-81.916 182.705-182.829 182.841h-512.033c-100.926-0.136-182.705-81.916-182.841-182.829v-658.29c0.136-100.926 81.916-182.705 182.829-182.841h0.013zM73.129 777.159c0.068 60.565 49.148 109.645 109.706 109.713h512.026c60.565-0.068 109.645-49.148 109.713-109.706v-658.284c-0.068-60.565-49.148-109.645-109.706-109.713h-512.026c-60.565 0.068-109.645 49.148-109.713 109.706v0.007zM355.35 418.577h333.567c23.020 0 41.691 13.166 41.691 29.403s-18.671 29.403-41.691 29.403h-333.567c-23.020 0-41.691-13.166-41.691-29.403s18.671-29.403 41.691-29.403zM355.35 565.632h333.567c23.020 0 41.691 13.166 41.691 29.403s-18.631 29.443-41.651 29.443h-333.607c-23.020 0-41.691-13.166-41.691-29.403s18.671-29.403 41.691-29.403zM355.35 271.522h333.567c23.020 0 41.691 13.166 41.691 29.403s-18.671 29.403-41.691 29.403h-333.567c-23.020 0-41.691-13.166-41.691-29.403s18.671-29.403 41.691-29.403zM189.384 565.632c23.020 0 41.691 13.166 41.691 29.403s-18.631 29.443-41.691 29.443h-0.399c-23.020 0-41.491-13.166-41.491-29.403s18.871-29.403 41.89-29.403zM189.384 418.577c23.020 0 41.691 13.166 41.691 29.403s-18.671 29.403-41.691 29.403h-0.399c-23.020 0-41.491-13.166-41.491-29.403s18.871-29.403 41.89-29.403zM189.384 271.522c23.020 0 41.691 13.166 41.691 29.403s-18.671 29.403-41.691 29.403h-0.399c-23.020 0-41.491-13.166-41.491-29.403s18.871-29.403 41.89-29.403z" />
<glyph unicode="&#xe911;" glyph-name="lock-io" horiz-adv-x="731" d="M621.714 594.286h-438.857v120.32c0 95.132 77.12 172.251 172.251 172.251v0h21.211c95.132 0 172.251-77.12 172.251-172.251v0c0-20.198 16.374-36.571 36.571-36.571s36.571 16.374 36.571 36.571v0c-0.208 135.444-109.95 245.186-245.374 245.394h-21.231c-135.444-0.208-245.186-109.95-245.394-245.374v-120.34c-60.594 0-109.714-49.121-109.714-109.714v0-340.114c0.208-115.044 93.413-208.249 208.437-208.457h314.534c115.044 0.208 208.249 93.413 208.457 208.437v340.134c0 60.594-49.121 109.714-109.714 109.714v0zM658.286 144.457c0-74.732-60.582-135.314-135.314-135.314v0h-314.514c-74.732 0-135.314 60.582-135.314 135.314v0 340.114c0 20.198 16.374 36.571 36.571 36.571h512c20.198 0 36.571-16.374 36.571-36.571v0zM402.286 275.383v-119.954c0-20.198-16.374-36.571-36.571-36.571s-36.571 16.374-36.571 36.571v0 119.954c-22.017 12.882-36.571 36.413-36.571 63.344 0 40.396 32.747 73.143 73.143 73.143s73.143-32.747 73.143-73.143c0-26.93-14.554-50.462-36.226-63.157l-0.345-0.187z" />
<glyph unicode="&#xe912;" glyph-name="photo" horiz-adv-x="1332" d="M444.109 661.303c0.010-0.567 0.015-1.237 0.015-1.907 0-35.116-14.943-66.742-38.818-88.865l-0.078-0.072c-23.624-23.089-55.978-37.335-91.658-37.335-0.949 0-1.896 0.010-2.84 0.030l0.141-0.002c-0.803-0.018-1.75-0.028-2.699-0.028-35.681 0-68.034 14.245-91.683 37.359l0.025-0.024c-23.953 22.195-38.896 53.821-38.896 88.937 0 0.671 0.005 1.34 0.016 2.008l-0.001-0.101c-0.010 0.567-0.015 1.237-0.015 1.907 0 35.116 14.943 66.742 38.818 88.865l0.078 0.072c23.624 23.089 55.978 37.335 91.658 37.335 0.949 0 1.896-0.010 2.84-0.030l-0.141 0.002c0.803 0.018 1.75 0.028 2.699 0.028 35.681 0 68.034-14.245 91.683-37.359l-0.025 0.024c23.953-22.195 38.896-53.821 38.896-88.937 0-0.671-0.005-1.34-0.016-2.008l0.001 0.101zM1154.756 405.303v-298.636h-977.124v127.97l222.085 213.364 111.012-106.652 355.323 341.333zM1221.375 874.667h-1110.363c-0.16 0.004-0.349 0.007-0.538 0.007-5.858 0-11.177-2.311-15.095-6.070l0.007 0.007c-4.062-3.693-6.602-8.998-6.602-14.896 0-0.043 0-0.087 0-0.13v0.007-810.939c0-0.037 0-0.080 0-0.123 0-5.898 2.54-11.204 6.585-14.882l0.016-0.015c3.91-3.752 9.229-6.063 15.087-6.063 0.189 0 0.378 0.002 0.566 0.007l-0.028-0.001h1110.363c0.16-0.004 0.349-0.007 0.538-0.007 5.858 0 11.177 2.311 15.095 6.070l-0.007-0.007c4.062 3.693 6.602 8.998 6.602 14.896 0 0.043 0 0.087 0 0.13v-0.007 810.697c0 0.037 0 0.080 0 0.123 0 5.898-2.54 11.204-6.585 14.882l-0.016 0.015c-3.91 3.752-9.229 6.063-15.087 6.063-0.189 0-0.378-0.002-0.566-0.007l0.028 0.001zM1332.387 853.348v-810.697c0.004-0.345 0.007-0.753 0.007-1.161 0-29.317-12.526-55.709-32.519-74.114l-0.071-0.065c-19.665-19.369-46.675-31.329-76.479-31.329-0.686 0-1.37 0.006-2.053 0.019l0.103-0.001h-1110.363c-0.58-0.011-1.265-0.017-1.95-0.017-29.803 0-56.813 11.96-76.492 31.342l0.014-0.013c-20.063 18.47-32.59 44.862-32.59 74.179 0 0.408 0.002 0.816 0.007 1.223l-0.001-0.062v810.697c-0.004 0.345-0.007 0.753-0.007 1.161 0 29.317 12.526 55.709 32.519 74.114l0.071 0.065c19.665 19.369 46.675 31.329 76.479 31.329 0.686 0 1.37-0.006 2.053-0.019l-0.103 0.001h1110.363c0.58 0.011 1.265 0.017 1.95 0.017 29.803 0 56.813-11.96 76.492-31.342l-0.014 0.013c20.063-18.47 32.59-44.862 32.59-74.179 0-0.408-0.002-0.816-0.007-1.223l0.001 0.062z" />
<glyph unicode="&#xe914;" glyph-name="user" d="M896 42.667v85.333c0 58.88-23.936 112.299-62.464 150.869s-91.989 62.464-150.869 62.464h-341.333c-58.88 0-112.299-23.936-150.869-62.464s-62.464-91.989-62.464-150.869v-85.333c0-23.552 19.115-42.667 42.667-42.667s42.667 19.115 42.667 42.667v85.333c0 35.371 14.293 67.285 37.504 90.496s55.125 37.504 90.496 37.504h341.333c35.371 0 67.285-14.293 90.496-37.504s37.504-55.125 37.504-90.496v-85.333c0-23.552 19.115-42.667 42.667-42.667s42.667 19.115 42.667 42.667zM725.333 640c0 58.88-23.936 112.299-62.464 150.869s-91.989 62.464-150.869 62.464-112.299-23.936-150.869-62.464-62.464-91.989-62.464-150.869 23.936-112.299 62.464-150.869 91.989-62.464 150.869-62.464 112.299 23.936 150.869 62.464 62.464 91.989 62.464 150.869zM640 640c0-35.371-14.293-67.285-37.504-90.496s-55.125-37.504-90.496-37.504-67.285 14.293-90.496 37.504-37.504 55.125-37.504 90.496 14.293 67.285 37.504 90.496 55.125 37.504 90.496 37.504 67.285-14.293 90.496-37.504 37.504-55.125 37.504-90.496z" />
<glyph unicode="&#xe915;" glyph-name="save" d="M1011.619 734.301l-213.318 213.318c-7.712 7.653-18.334 12.382-30.061 12.382-0.084 0-0.169 0-0.253-0.001h-682.669c-47.12 0-85.318-38.198-85.318-85.318v0-853.364c0-47.12 38.198-85.318 85.318-85.318v0h853.364c47.12 0 85.318 38.198 85.318 85.318v0 682.682c0 0.071 0.001 0.156 0.001 0.24 0 11.727-4.729 22.349-12.384 30.064l0.003-0.003zM341.364 874.682h341.318v-170.682h-341.364zM682.682 21.364h-341.364v341.318h341.318zM768 21.364v341.318c0 47.12-38.198 85.318-85.318 85.318v0h-341.364c-47.12 0-85.318-38.198-85.318-85.318v0-341.318h-170.682v853.318h170.682v-170.682c0-47.12 38.198-85.318 85.318-85.318h341.318c0.014 0 0.030 0 0.047 0 47.12 0 85.318 38.198 85.318 85.318v0 153.181l170.682-170.682v-665.181z" />
<glyph unicode="&#xe916;" glyph-name="send" horiz-adv-x="1025" d="M23.21 486.055l938.709 469.518c5.561 2.879 12.14 4.568 19.113 4.568 23.346 0 42.272-18.926 42.272-42.272 0-3.574-0.444-7.044-1.279-10.359l0.062 0.292-126.305-459.591 128.029-458.286c0.823-3.161 1.296-6.79 1.296-10.53 0-23.99-19.448-43.438-43.438-43.438-7.209 0-14.009 1.756-19.993 4.865l0.241-0.114-938.709 469.564c-13.861 7.243-23.159 21.516-23.159 37.961s9.298 30.718 22.924 37.849l0.235 0.112zM915.033 59.322l-94.286 346.289h-394.294v85.151h394.294l94.286 346.103-777.077-388.748z" />
<glyph unicode="&#xe917;" glyph-name="x" d="M225.835 652.502l225.835-225.835-225.835-225.835c-16.683-16.683-16.683-43.691 0-60.331s43.691-16.683 60.331 0l225.835 225.835 225.835-225.835c16.683-16.683 43.691-16.683 60.331 0s16.683 43.691 0 60.331l-225.835 225.835 225.835 225.835c16.683 16.683 16.683 43.691 0 60.331s-43.691 16.683-60.331 0l-225.835-225.835-225.835 225.835c-16.683 16.683-43.691 16.683-60.331 0s-16.683-43.691 0-60.331z" />
<glyph unicode="&#xe918;" glyph-name="settings" horiz-adv-x="997" d="M901.733 420.13v56.103l70.424 61.632c15.262 13.509 24.834 33.148 24.834 55.022 0 14.256-4.066 27.562-11.101 38.823l0.18-0.309-86.557 146.694c-13.053 22.095-36.749 36.683-63.852 36.683-8.248 0-16.181-1.351-23.589-3.844l0.521 0.152-89.14-30.046c-13.542 9.16-29.273 18.31-45.611 26.419l-2.425 1.089-18.716 92.312c-6.974 33.843-36.524 58.927-71.934 58.927-0.505 0-1.008-0.005-1.511-0.015l0.075 0.001h-171.618c-0.427 0.009-0.931 0.014-1.435 0.014-35.41 0-64.96-25.084-71.852-58.452l-0.082-0.475-18.716-92.312c-18.927-9.209-34.779-18.363-49.937-28.473l1.538 0.965-87.282 31.722c-5.36 1.401-11.514 2.206-17.856 2.206-1.961 0-3.905-0.077-5.828-0.228l0.254 0.016c-26.973-0.031-50.534-14.613-63.257-36.316l-0.187-0.346-86.557-146.694c-6.251-10.57-9.944-23.295-9.944-36.882 0-21.947 9.636-41.643 24.908-55.088l0.081-0.070 69.291-63.445v-56.103l-69.291-61.632c-15.698-13.535-25.574-33.447-25.574-55.666 0-13.991 3.916-27.067 10.712-38.192l-0.183 0.322 86.557-146.694c13.053-22.095 36.749-36.683 63.852-36.683 8.248 0 16.181 1.351 23.589 3.844l-0.521-0.152 89.14 30.046c13.542-9.16 29.273-18.31 45.611-26.419l2.425-1.089 18.716-92.403c6.974-33.843 36.524-58.927 71.934-58.927 0.505 0 1.008 0.005 1.511 0.015l-0.075-0.001h173.114c0.427-0.009 0.931-0.014 1.435-0.014 35.41 0 64.96 25.084 71.852 58.452l0.082 0.475 18.716 92.403c18.927 9.21 34.779 18.363 49.937 28.473l-1.538-0.965 88.777-30.046c6.887-2.341 14.819-3.692 23.067-3.692 27.103 0 50.799 14.588 63.664 36.34l0.188 0.343 83.611 146.694c6.251 10.57 9.944 23.295 9.944 36.882 0 21.947-9.636 41.643-24.908 55.088l-0.081 0.070zM836.067 154.613l-125.802 42.553c-28.21-24.008-61.171-43.507-97.132-56.824l-2.249-0.729-26.058-131.512h-173.114l-26.058 130.198c-37.992 14.426-70.777 33.83-99.566 57.862l0.547-0.444-126.119-41.058-86.557 146.648 99.699 88.007c-3.236 17.257-5.088 37.11-5.088 57.395s1.851 40.138 5.394 59.399l-0.306-2.004-99.699 90.636 86.557 146.694 125.802-42.553c28.21 24.008 61.171 43.507 97.132 56.824l2.249 0.729 26.012 131.693h173.114l26.284-130.198c37.996-14.468 70.78-33.916 99.559-57.993l-0.54 0.44 126.119 41.058 86.557-146.694-99.699-88.007c3.236-17.257 5.088-37.11 5.088-57.395s-1.851-40.138-5.394-59.399l0.306 2.004 99.699-90.636zM498.314 227.982c-119.393 1.236-215.703 98.309-215.703 217.877 0 120.336 97.552 217.888 217.888 217.888s217.888-97.552 217.888-217.888c0-60.168-24.388-114.64-63.817-154.069v0c-39.758-39.439-94.514-63.811-154.962-63.811-0.455 0-0.91 0.001-1.364 0.004h0.070zM498.314 594.739c-77.742-1.865-140.051-65.329-140.051-143.347 0-79.19 64.196-143.385 143.385-143.385s143.385 64.196 143.385 143.385c0 39.592-16.046 75.435-41.99 101.383v0c-25.948 25.951-61.797 42.003-101.395 42.003-1.172 0-2.341-0.014-3.507-0.042l0.173 0.003z" />
<glyph unicode="&#xe919;" glyph-name="timer" d="M568.785 842.193c194.17-28.773 341.47-194.292 341.47-394.216 0-219.969-178.32-398.289-398.289-398.289s-398.289 178.32-398.289 398.289c0 115.867 49.476 220.179 128.455 292.96l0.277 0.252-80.477 80.431c-99.941-93.676-162.209-226.509-162.209-373.885 0-282.77 229.23-512 512-512s512 229.23 512 512c0 282.77-229.23 512-512 512-19.925 0-39.584-1.138-58.916-3.353l2.361 0.22v-342.993h113.757v228.073zM267.729 635.299c-10.291-10.293-16.655-24.511-16.655-40.215s6.365-29.923 16.655-40.215l160.954-160.954c10.346-10.631 24.791-17.226 40.778-17.226 31.413 0 56.879 25.465 56.879 56.879 0 15.986-6.595 30.432-17.213 40.765l-0.013 0.012-161.001 160.954c-10.293 10.291-24.511 16.655-40.215 16.655s-29.923-6.365-40.215-16.655v0z" />
<glyph unicode="&#xe91a;" glyph-name="time-wait" d="M511.953 122.182c-0.133 0-0.29 0-0.448 0-89.833 0-171.147 36.47-229.946 95.412l-0.007 0.007 230.4 230.4v325.818c179.944 0 325.818-145.874 325.818-325.818s-145.874-325.818-325.818-325.818v0zM1023.953 448v0c0 282.77-229.23 512-512 512v0c-282.77 0-512-229.23-512-512s229.23-512 512-512c282.77 0 512 229.23 512 512zM930.863 448c0-231.357-187.552-418.909-418.909-418.909s-418.909 187.552-418.909 418.909c0 231.357 187.552 418.909 418.909 418.909v0c231.357 0 418.909-187.552 418.909-418.909v0z" />
<glyph unicode="&#xe91b;" glyph-name="map-pin" d="M938.667 512c0 117.803-47.787 224.555-124.971 301.696s-183.893 124.971-301.696 124.971-224.555-47.787-301.696-124.971-124.971-183.893-124.971-301.696c0-24.277 2.261-48.128 6.4-71.509 11.691-66.048 38.357-128.171 71.765-184.32 116.565-195.883 324.821-334.336 324.821-334.336 14.123-9.259 32.64-9.771 47.317 0 0 0 208.299 138.453 324.821 334.336 33.408 56.149 60.075 118.272 71.765 184.32 4.181 23.381 6.443 47.232 6.443 71.509zM853.333 512c0-18.944-1.749-37.845-5.077-56.661-9.429-53.333-31.445-105.728-61.099-155.563-81.579-137.131-214.869-245.205-271.744-287.573-59.648 39.083-195.755 148.352-278.613 287.573-29.653 49.835-51.669 102.229-61.099 155.563-3.285 18.816-5.035 37.717-5.035 56.661 0 94.251 38.144 179.541 99.968 241.365s147.115 99.968 241.365 99.968 179.541-38.144 241.365-99.968 99.968-147.115 99.968-241.365zM682.667 512c0 47.104-19.157 89.856-50.005 120.661s-73.557 50.005-120.661 50.005-89.856-19.157-120.661-50.005-50.005-73.557-50.005-120.661 19.157-89.856 50.005-120.661 73.557-50.005 120.661-50.005 89.856 19.157 120.661 50.005 50.005 73.557 50.005 120.661zM597.333 512c0-23.595-9.515-44.843-25.003-60.331s-36.736-25.003-60.331-25.003-44.843 9.515-60.331 25.003-25.003 36.736-25.003 60.331 9.515 44.843 25.003 60.331 36.736 25.003 60.331 25.003 44.843-9.515 60.331-25.003 25.003-36.736 25.003-60.331z" />
<glyph unicode="&#xe91c;" glyph-name="chevron-right" d="M414.165 140.502l256 256c16.683 16.683 16.683 43.691 0 60.331l-256 256c-16.683 16.683-43.691 16.683-60.331 0s-16.683-43.691 0-60.331l225.835-225.835-225.835-225.835c-16.683-16.683-16.683-43.691 0-60.331s43.691-16.683 60.331 0z" />
<glyph unicode="&#xe91d;" glyph-name="chevron-left" d="M670.165 200.832l-225.835 225.835 225.835 225.835c16.683 16.683 16.683 43.691 0 60.331s-43.691 16.683-60.331 0l-256-256c-16.683-16.683-16.683-43.691 0-60.331l256-256c16.683-16.683 43.691-16.683 60.331 0s16.683 43.691 0 60.331z" />
<glyph unicode="&#xe91e;" glyph-name="chevron-down" d="M225.835 524.502l256-256c16.683-16.683 43.691-16.683 60.331 0l256 256c16.683 16.683 16.683 43.691 0 60.331s-43.691 16.683-60.331 0l-225.835-225.835-225.835 225.835c-16.683 16.683-43.691 16.683-60.331 0s-16.683-43.691 0-60.331z" />
<glyph unicode="&#xe91f;" glyph-name="twitter" horiz-adv-x="1002" d="M596.328 526.407l373.018 433.593h-88.404l-323.874-376.479-258.699 376.479h-298.369l391.19-569.319-391.19-454.681h88.404l342.047 397.567 273.273-397.567h298.369l-405.765 590.407zM475.268 385.671l-39.625 56.704-315.357 450.901h135.771l624.976-893.968h-135.817l-269.948 386.317z" />
<glyph unicode="&#xe920;" glyph-name="search" d="M684.416 262.144c-1.451-1.109-2.859-2.347-4.224-3.712s-2.56-2.731-3.712-4.224c-53.675-51.755-126.677-83.541-207.147-83.541-82.475 0-157.099 33.365-211.2 87.467s-87.467 128.725-87.467 211.2 33.365 157.099 87.467 211.2 128.725 87.467 211.2 87.467 157.099-33.365 211.2-87.467 87.467-128.725 87.467-211.2c0-80.469-31.787-153.472-83.584-207.189zM926.165 72.832l-156.8 156.8c52.523 65.707 83.968 149.035 83.968 239.701 0 106.027-43.008 202.069-112.469 271.531s-165.504 112.469-271.531 112.469-202.069-43.008-271.531-112.469-112.469-165.504-112.469-271.531 43.008-202.069 112.469-271.531 165.504-112.469 271.531-112.469c90.667 0 173.995 31.445 239.701 83.968l156.8-156.8c16.683-16.683 43.691-16.683 60.331 0s16.683 43.691 0 60.331z" />
<glyph unicode="&#xe921;" glyph-name="upload" horiz-adv-x="811" d="M551.827 952.071c-4.46 4.799-10.772 7.823-17.793 7.928h-399.47c-74.101-0.312-134.106-60.225-134.564-134.262v-755.432c0.458-74.081 60.463-133.994 134.534-134.306h542.122c74.133 0.27 134.179 60.2 134.638 134.262v599.848c-0.229 6.713-2.909 12.76-7.168 17.31l0.014-0.015zM558.981 872.675l168.97-177.341h-109.82c-32.587 0-59.003 26.417-59.003 59.003v0zM676.729-14.548h-542.165c-46.762 0.33-84.599 38.076-85.075 84.772v755.47c0.476 46.741 38.313 84.487 85.044 84.817h374.997v-156.285c0-0.044 0-0.096 0-0.148 0-59.756 48.441-108.197 108.197-108.197 0.143 0 0.285 0 0.428 0.001h143.798v-575.576c-0.375-46.841-38.352-84.689-85.207-84.854h-0.016zM609.208 156.119h-407.122c-0.285 0.012-0.619 0.018-0.955 0.018-13.666 0-24.744-11.078-24.744-24.744s11.078-24.744 24.744-24.744c0.336 0 0.67 0.007 1.003 0.020l-0.048-0.002h407.38c0.244-0.009 0.53-0.013 0.817-0.013 13.666 0 24.744 11.078 24.744 24.744s-11.078 24.744-24.744 24.744c-0.378 0-0.754-0.008-1.129-0.025l0.053 0.002zM279.011 422.26l101.891 109.598v-270.271c-0.012-0.285-0.018-0.619-0.018-0.955 0-13.666 11.078-24.744 24.744-24.744s24.744 11.078 24.744 24.744c0 0.336-0.007 0.67-0.020 1.003l0.002-0.048v270.087l101.891-109.562c4.509-4.777 10.885-7.751 17.955-7.751 13.625 0 24.671 11.045 24.671 24.671 0 6.456-2.48 12.332-6.538 16.729l0.015-0.017-144.963 155.584c-4.502 4.868-10.922 7.906-18.051 7.906s-13.55-3.038-18.036-7.89l-0.015-0.016-144.963-155.584c-4.101-4.393-6.619-10.311-6.619-16.817 0-7.129 3.024-13.551 7.858-18.055l0.015-0.014c4.468-4.092 10.447-6.599 17.011-6.599 7.265 0 13.813 3.071 18.415 7.986l0.013 0.014z" />
<glyph unicode="&#xe922;" glyph-name="user-io" horiz-adv-x="854" d="M420.722 466.815c0.976-0.014 2.128-0.023 3.282-0.023 67.085 0 127.706 27.678 171.066 72.237l0.053 0.054c44.613 43.412 72.291 104.033 72.291 171.118 0 1.14-0.008 2.279-0.024 3.416l0.002-0.172c0.013 0.942 0.021 2.054 0.021 3.168 0 67.104-27.693 127.74-72.274 171.102l-0.055 0.053c-43.415 44.591-104.026 72.253-171.097 72.253-1.148 0-2.294-0.008-3.438-0.024l0.173 0.002c-0.981 0.015-2.139 0.023-3.298 0.023-67.080 0-127.696-27.678-171.050-72.237l-0.053-0.054c-44.613-43.412-72.291-104.033-72.291-171.118 0-1.14 0.008-2.279 0.024-3.416l-0.002 0.172c-0.014-0.976-0.023-2.128-0.023-3.282 0-67.085 27.678-127.706 72.237-171.066l0.054-0.053c43.418-44.613 104.044-72.291 171.135-72.291 1.135 0 2.268 0.008 3.399 0.024l-0.171-0.002zM288.688 845.402c32.482 33.749 78.041 54.713 128.496 54.713 1.244 0 2.485-0.013 3.724-0.038l-0.185 0.003c1.048 0.022 2.284 0.035 3.522 0.035 50.46 0 96.024-20.963 128.457-54.656l0.054-0.057c33.749-32.494 54.712-78.063 54.712-128.528 0-1.233-0.013-2.462-0.037-3.689l0.003 0.183c0.022-1.048 0.035-2.284 0.035-3.522 0-50.46-20.963-96.024-54.656-128.457l-0.057-0.054c-32.488-33.749-78.052-54.712-128.512-54.712-1.238 0-2.474 0.013-3.706 0.038l0.184-0.003c-1.043-0.022-2.273-0.034-3.506-0.034-50.465 0-96.034 20.963-128.474 54.656l-0.054 0.056c-33.749 32.482-54.713 78.041-54.713 128.496 0 1.244 0.013 2.485 0.038 3.724l-0.003-0.185c-0.022 1.048-0.035 2.284-0.035 3.522 0 50.46 20.963 96.024 54.656 128.457l0.057 0.054zM852.278 172.574c-1.853 24.572-4.801 46.733-8.905 68.485l0.594-3.788c-4.525 25.498-10.047 47.38-16.93 68.65l1.008-3.604c-7.599 23.291-16.66 43.352-27.581 62.2l0.825-1.542c-11.298 20.122-24.636 37.419-40.11 52.538l-0.044 0.043c-16.246 15.294-35.491 27.616-56.733 35.969l-1.207 0.418c-21.369 8.485-46.129 13.405-72.038 13.405-0.614 0-1.227-0.003-1.84-0.008l0.094 0.001c-15.422-1.703-29.158-7.846-40.192-17.104l0.116 0.095q-20.815-13.553-41.746-26.912c-15.519-9.451-33.422-17.543-52.323-23.356l-1.695-0.449c-19.703-6.76-42.404-10.663-66.017-10.663s-46.314 3.903-67.494 11.098l1.477-0.436c-20.58 6.259-38.471 14.351-55.040 24.403l1.061-0.598c-15.533 9.941-29.591 18.99-41.785 26.95-11.037 9.248-24.949 15.407-40.221 16.982l-0.321 0.027c-0.538 0.005-1.173 0.008-1.809 0.008-25.887 0-50.625-4.92-73.329-13.877l1.355 0.471c-22.571-8.742-41.925-21.084-58.344-36.513l0.093 0.087c-15.576-15.15-28.963-32.434-39.717-51.406l-0.592-1.135c-10.092-17.314-19.153-37.388-26.105-58.421l-0.652-2.276c-5.869-17.658-11.391-39.54-15.453-61.93l-0.469-3.116c-3.522-17.997-6.47-40.171-8.185-62.69l-0.125-2.045c-1.204-19.533-1.903-39.688-1.903-60.425-0.107-2.26-0.169-4.908-0.169-7.571 0-47.377 19.375-90.229 50.633-121.065l0.019-0.019c32.209-29.52 75.315-47.609 122.646-47.609 2.632 0 5.252 0.056 7.857 0.167l-0.372-0.013h493.185c2.207-0.096 4.795-0.151 7.397-0.151 47.334 0 90.443 18.087 122.793 47.728l-0.136-0.123c31.278 30.843 50.654 73.685 50.654 121.053 0 2.674-0.062 5.333-0.184 7.977l0.014-0.375c0 20.737-0.699 40.969-2.058 60.464zM762.457 26.909c-21.571-19.403-50.257-31.27-81.715-31.27-2.483 0-4.949 0.074-7.395 0.22l0.337-0.016h-493.030c-2.109-0.13-4.575-0.204-7.058-0.204-31.458 0-60.145 11.867-81.827 31.369l0.112-0.099c-19.846 20.055-32.106 47.65-32.106 78.108 0 2.482 0.081 4.944 0.242 7.385l-0.017-0.332c0 19.184 0.621 38.134 1.903 56.309 1.664 22.109 4.322 42.061 8.029 61.643l-0.534-3.392c3.973 22.487 8.822 41.785 14.868 60.546l-0.888-3.188c6.197 18.941 13.574 35.25 22.458 50.576l-0.673-1.257c8.345 14.858 18.186 27.631 29.6 38.804l0.030 0.029c10.807 10.088 23.604 18.206 37.719 23.686l0.804 0.275c13.998 5.528 30.201 8.853 47.147 9.124l0.113 0.001c2.097-1.126 5.825-3.262 11.922-7.223 12.349-8.039 26.562-17.203 42.29-27.183 19.487-12.038 41.953-22.33 65.697-29.725l2.106-0.565c25.235-8.615 54.307-13.589 84.54-13.589s59.305 4.973 86.442 14.146l-1.901-0.558c25.865 7.974 48.344 18.279 69.132 31.067l-1.29-0.738c16.077 10.291 29.902 19.184 42.251 27.183 6.058 3.883 9.825 6.097 11.922 7.184 17.059-0.275 33.263-3.599 48.199-9.45l-0.939 0.324c14.917-5.76 27.713-13.878 38.593-24.025l-0.070 0.064c11.448-11.2 21.29-23.974 29.191-37.987l0.439-0.846c8.221-14.072 15.598-30.382 21.257-47.474l0.529-1.844c5.172-15.575 10.034-34.872 13.608-54.617l0.411-2.74c3.159-16.162 5.817-36.114 7.379-56.372l0.116-1.878c1.282-18.135 1.903-37.047 1.903-56.309 0.143-2.114 0.225-4.582 0.225-7.068 0-30.454-12.261-58.044-32.117-78.103l0.009 0.009z" />
<glyph unicode="&#xe923;" glyph-name="user-profile" horiz-adv-x="1097" d="M365.704 886.839c0.015 0 0.032 0 0.050 0 101 0 182.877-81.877 182.877-182.877s-81.877-182.877-182.877-182.877c-101 0-182.877 81.877-182.877 182.877 0 0.018 0 0.035 0 0.053v-0.003c0 101 81.877 182.877 182.877 182.877v0zM365.753 960.050c-141.378 0-255.988-114.61-255.988-255.988s114.61-255.988 255.988-255.988c141.378 0 255.988 114.61 255.988 255.988v0c-0.029 141.357-114.627 255.938-255.988 255.938-0.018 0-0.035 0-0.053 0h0.003zM731.457-64h-73.161v182.877c0 101-81.877 182.877-182.877 182.877h-219.432c-101 0-182.877-81.877-182.877-182.877v0-182.877h-73.111v182.877c0 141.378 114.61 255.988 255.988 255.988h219.432c141.378 0 255.988-114.61 255.988-255.988v0zM731.457 886.839h365.704v-73.161h-365.704zM731.457 704.012h365.704v-73.161h-365.704zM731.457 521.136h255.988v-73.161h-255.988z" />
<glyph unicode="&#xe924;" glyph-name="wallet" horiz-adv-x="1147" d="M819.179 386.564h81.897v-82.106h-81.897zM1064.975 755.388h-983.078v122.715h901.128v81.897h-901.128c-45.23 0-81.897-36.667-81.897-81.897v0-860.154c0-45.23 36.667-81.897 81.897-81.897h983.078c45.23 0 81.897 36.667 81.897 81.897v0 655.333c0 0.062 0 0.135 0 0.209 0 45.23-36.667 81.897-81.897 81.897 0 0 0 0 0 0v0zM81.897 17.949v655.333h983.078v-122.872h-327.693c-0.015 0-0.034 0-0.052 0-45.176 0-81.808-36.577-81.897-81.732v-245.752c0-45.23 36.667-81.897 81.897-81.897v0h327.693v-122.872zM1064.975 468.67v-245.743h-327.693v245.743z" />
<glyph unicode="&#xe925;" glyph-name="at-sign" d="M640 426.667c0-35.371-14.293-67.285-37.504-90.496s-55.125-37.504-90.496-37.504-67.285 14.293-90.496 37.504-37.504 55.125-37.504 90.496 14.293 67.285 37.504 90.496 55.125 37.504 90.496 37.504 67.285-14.293 90.496-37.504 37.504-55.125 37.504-90.496zM671.573 285.099c5.547-7.765 11.691-15.061 18.389-21.76 30.848-30.848 73.6-50.005 120.704-50.005s89.856 19.157 120.661 50.005 50.005 73.557 50.005 120.661v42.667c0 129.579-52.608 246.997-137.472 331.861s-202.283 137.472-331.904 137.429-246.955-52.565-331.861-137.472-137.429-202.283-137.429-331.861 52.608-246.997 137.472-331.861 202.283-137.472 331.861-137.429c107.733 0 207.147 36.352 285.44 96.811 18.645 14.379 22.101 41.173 7.68 59.861s-41.173 22.101-59.861 7.68c-63.445-48.981-144.085-78.677-231.893-79.019-108.373 0.384-203.776 43.264-272.981 112.469-69.419 69.504-112.384 165.419-112.384 271.488s42.923 201.984 112.469 271.531 165.461 112.469 271.531 112.469 201.984-42.923 271.531-112.469 112.469-165.461 112.469-271.488v-42.667c0-23.595-9.515-44.843-25.003-60.331s-36.736-25.003-60.331-25.003-44.843 9.515-60.331 25.003-25.003 36.736-25.003 60.331v213.333c0 23.552-19.115 42.667-42.667 42.667s-42.667-19.115-42.667-42.667c-35.627 26.752-80 42.667-128 42.667-58.88 0-112.299-23.936-150.869-62.464s-62.464-91.989-62.464-150.869 23.936-112.299 62.464-150.869 91.989-62.464 150.869-62.464 112.299 23.936 150.869 62.464c2.987 2.987 5.931 6.101 8.747 9.259z" />
<glyph unicode="&#xe92b;" glyph-name="chevron-up" d="M798.165 328.832l-256 256c-16.683 16.683-43.691 16.683-60.331 0l-256-256c-16.683-16.683-16.683-43.691 0-60.331s43.691-16.683 60.331 0l225.835 225.835 225.835-225.835c16.683-16.683 43.691-16.683 60.331 0s16.683 43.691 0 60.331z" />
<glyph unicode="&#xe953;" glyph-name="phone-call" d="M633.984 683.478c40.235-7.851 74.24-29.141 98.56-58.624 17.92-21.76 30.549-47.957 36.352-76.501 4.651-23.083 27.179-38.016 50.261-33.365s38.016 27.179 33.365 50.261c-8.533 42.325-27.307 81.365-54.144 113.877-36.437 44.203-87.765 76.331-148.053 88.064-23.125 4.523-45.525-10.581-50.048-33.707s10.581-45.525 33.707-50.048zM637.44 853.59c85.333-9.472 159.701-49.579 213.547-108.544 47.701-52.224 79.275-119.211 87.979-192.811 2.773-23.381 23.979-40.149 47.36-37.376s40.149 23.979 37.376 47.36c-10.795 91.605-50.176 175.189-109.696 240.384-67.328 73.728-160.512 123.989-267.136 135.808-23.424 2.603-44.501-14.293-47.104-37.675s14.293-44.501 37.675-47.104zM981.333 216.747c0.683 30.464-10.069 59.904-28.715 82.901-19.627 24.149-48.171 41.259-82.133 46.080-34.133 4.181-72.32 13.397-110.336 27.563-18.475 6.784-38.101 9.301-57.344 7.424-28.288-2.731-55.765-14.891-77.611-36.48l-30.72-30.72c-75.52 47.659-143.36 113.792-195.541 195.797l30.976 30.976c13.739 14.080 24.021 30.976 30.165 49.323 9.045 26.965 9.131 57.003-1.664 85.803-12.331 32.128-22.101 70.144-27.477 110.72-4.437 30.464-19.456 57.387-41.088 76.971-22.997 20.736-53.589 33.237-86.485 32.896h-127.829c-3.755 0-7.765-0.171-11.648-0.512-35.157-3.2-65.792-20.395-86.741-45.483s-32.341-58.325-29.141-93.824c12.8-131.243 58.24-266.368 137.216-388.352 64.085-102.955 155.648-197.248 268.715-269.056 109.568-72.405 242.517-122.112 387.669-137.856 3.925-0.384 8.149-0.555 12.288-0.555 35.328 0.128 67.328 14.635 90.368 37.845s37.248 55.339 37.12 90.496zM896 216.747v-128c0.043-11.947-4.651-22.613-12.373-30.379s-18.304-12.587-30.123-12.629c-134.357 14.336-254.336 59.349-352.555 124.245-103.595 65.835-185.984 150.912-243.285 242.944-72.405 111.787-113.28 233.856-124.757 351.488-1.024 11.435 2.731 22.443 9.771 30.891s17.195 14.080 28.928 15.147l131.755 0.213c11.563 0.128 21.632-4.011 29.312-10.923 7.253-6.571 12.288-15.616 13.781-25.941 6.059-45.739 17.408-90.325 32.299-129.067 3.456-9.216 3.413-19.072 0.427-28.075-2.091-6.187-5.589-11.989-10.325-16.853l-53.845-53.803c-13.824-13.824-16.171-34.731-6.912-51.243 67.584-118.827 163.797-211.499 272.256-272.128 16.939-9.472 37.632-6.144 50.987 7.083l54.187 54.187c7.083 6.997 16.085 10.965 25.515 11.904 6.485 0.64 13.227-0.213 19.584-2.56 43.605-16.256 88.32-27.136 129.451-32.171 10.283-1.451 19.712-7.083 26.24-15.147 6.272-7.723 9.856-17.579 9.643-29.099z" />
<glyph unicode="&#xea1c;" glyph-name="play3" d="M192 832l640-384-640-384z" />
<glyph unicode="&#xea90;" glyph-name="facebook" d="M608 768h160v192h-160c-123.514 0-224-100.486-224-224v-96h-128v-192h128v-512h192v512h160l32 192h-192v96c0 17.346 14.654 32 32 32z" />
<glyph unicode="&#xea92;" glyph-name="instagram" d="M512 867.8c136.8 0 153-0.6 206.8-3 50-2.2 77-10.6 95-17.6 23.8-9.2 41-20.4 58.8-38.2 18-18 29-35 38.4-58.8 7-18 15.4-45.2 17.6-95 2.4-54 3-70.2 3-206.8s-0.6-153-3-206.8c-2.2-50-10.6-77-17.6-95-9.2-23.8-20.4-41-38.2-58.8-18-18-35-29-58.8-38.4-18-7-45.2-15.4-95-17.6-54-2.4-70.2-3-206.8-3s-153 0.6-206.8 3c-50 2.2-77 10.6-95 17.6-23.8 9.2-41 20.4-58.8 38.2-18 18-29 35-38.4 58.8-7 18-15.4 45.2-17.6 95-2.4 54-3 70.2-3 206.8s0.6 153 3 206.8c2.2 50 10.6 77 17.6 95 9.2 23.8 20.4 41 38.2 58.8 18 18 35 29 58.8 38.4 18 7 45.2 15.4 95 17.6 53.8 2.4 70 3 206.8 3zM512 960c-139 0-156.4-0.6-211-3-54.4-2.4-91.8-11.2-124.2-23.8-33.8-13.2-62.4-30.6-90.8-59.2-28.6-28.4-46-57-59.2-90.6-12.6-32.6-21.4-69.8-23.8-124.2-2.4-54.8-3-72.2-3-211.2s0.6-156.4 3-211c2.4-54.4 11.2-91.8 23.8-124.2 13.2-33.8 30.6-62.4 59.2-90.8 28.4-28.4 57-46 90.6-59 32.6-12.6 69.8-21.4 124.2-23.8 54.6-2.4 72-3 211-3s156.4 0.6 211 3c54.4 2.4 91.8 11.2 124.2 23.8 33.6 13 62.2 30.6 90.6 59s46 57 59 90.6c12.6 32.6 21.4 69.8 23.8 124.2 2.4 54.6 3 72 3 211s-0.6 156.4-3 211c-2.4 54.4-11.2 91.8-23.8 124.2-12.6 34-30 62.6-58.6 91-28.4 28.4-57 46-90.6 59-32.6 12.6-69.8 21.4-124.2 23.8-54.8 2.6-72.2 3.2-211.2 3.2v0zM512 711c-145.2 0-263-117.8-263-263s117.8-263 263-263 263 117.8 263 263c0 145.2-117.8 263-263 263zM512 277.4c-94.2 0-170.6 76.4-170.6 170.6s76.4 170.6 170.6 170.6c94.2 0 170.6-76.4 170.6-170.6s-76.4-170.6-170.6-170.6zM846.8 721.4c0-33.91-27.49-61.4-61.4-61.4s-61.4 27.49-61.4 61.4c0 33.91 27.49 61.4 61.4 61.4s61.4-27.49 61.4-61.4z" />
<glyph unicode="&#xea93;" glyph-name="whatsapp" d="M873 811.2c-95.8 96-223.2 148.8-359 148.8-279.6 0-507.2-227.6-507.2-507.4 0-89.4 23.4-176.8 67.8-253.6l-72-263 269 70.6c74.2-40.4 157.6-61.8 242.4-61.8h0.2c0 0 0 0 0 0 279.6 0 507.4 227.6 507.4 507.4 0 135.6-52.8 263-148.6 359zM514.2 30.4v0c-75.8 0-150 20.4-214.8 58.8l-15.4 9.2-159.6-41.8 42.6 155.6-10 16c-42.4 67-64.6 144.6-64.6 224.4 0 232.6 189.2 421.8 422 421.8 112.6 0 218.6-44 298.2-123.6 79.6-79.8 123.4-185.6 123.4-298.4-0.2-232.8-189.4-422-421.8-422zM745.4 346.4c-12.6 6.4-75 37-86.6 41.2s-20 6.4-28.6-6.4c-8.4-12.6-32.8-41.2-40.2-49.8-7.4-8.4-14.8-9.6-27.4-3.2s-53.6 19.8-102 63c-37.6 33.6-63.2 75.2-70.6 87.8s-0.8 19.6 5.6 25.8c5.8 5.6 12.6 14.8 19 22.2s8.4 12.6 12.6 21.2c4.2 8.4 2.2 15.8-1 22.2s-28.6 68.8-39 94.2c-10.2 24.8-20.8 21.4-28.6 21.8-7.4 0.4-15.8 0.4-24.2 0.4s-22.2-3.2-33.8-15.8c-11.6-12.6-44.4-43.4-44.4-105.8s45.4-122.6 51.8-131.2c6.4-8.4 89.4-136.6 216.6-191.4 30.2-13 53.8-20.8 72.2-26.8 30.4-9.6 58-8.2 79.8-5 24.4 3.6 75 30.6 85.6 60.2s10.6 55 7.4 60.2c-3 5.6-11.4 8.8-24.2 15.2z" />
<glyph unicode="&#xeaca;" glyph-name="linkedin2" d="M384 576h177.106v-90.782h2.532c24.64 44.194 84.958 90.782 174.842 90.782 186.946 0 221.52-116.376 221.52-267.734v-308.266h-184.61v273.278c0 65.184-1.334 149.026-96.028 149.026-96.148 0-110.82-70.986-110.82-144.292v-278.012h-184.542v576zM64 576h192v-576h-192v576zM256 736c0-53.019-42.981-96-96-96s-96 42.981-96 96c0 53.019 42.981 96 96 96s96-42.981 96-96z" />
</font>
</defs>
</svg>
